<?xml version="1.0" encoding="UTF-8"?>
<svg id="Layer_1" data-name="Layer 1" xmlns="http://www.w3.org/2000/svg" viewBox="0 0 2000 600">
  <defs>
    <style>
      .cls-1 {
        stroke: #808184;
      }

      .cls-1, .cls-2 {
        fill: none;
        stroke-miterlimit: 10;
      }

      .cls-2 {
        stroke: #2c4d23;
        stroke-linecap: round;
        stroke-width: 8px;
      }

      .cls-3 {
        fill: #231f20;
      }

      .cls-4 {
        fill: #237138;
      }

      .cls-5 {
        fill: #4a2c11;
      }

      .cls-6 {
        fill: #4a2d16;
      }

      .cls-7 {
        fill: #6d6e70;
      }
    </style>
  </defs>
  <g>
    <g>
      <path class="cls-3" d="M24.44,174.22c13.26-2.21,30.62-4.1,52.71-4.1,27.15,0,47.03,6.31,59.66,17.68,11.68,10.1,18.62,25.57,18.62,44.51s-5.68,34.41-16.41,45.46c-14.52,15.47-38.19,23.36-65.03,23.36-8.21,0-15.78-.32-22.1-1.89v85.23h-27.46v-210.23ZM51.9,276.81c6,1.58,13.57,2.21,22.73,2.21,33.14,0,53.35-16.1,53.35-45.46s-19.89-41.67-50.19-41.67c-12,0-21.15.95-25.88,2.21v82.7Z"/>
      <path class="cls-3" d="M267.81,384.45l-2.21-19.25h-.95c-8.52,12-24.94,22.73-46.72,22.73-30.93,0-46.72-21.78-46.72-43.88,0-36.93,32.83-57.13,91.86-56.82v-3.16c0-12.63-3.47-35.35-34.72-35.35-14.2,0-29.04,4.42-39.77,11.36l-6.31-18.31c12.63-8.21,30.93-13.57,50.19-13.57,46.72,0,58.08,31.88,58.08,62.5v57.13c0,13.26.63,26.2,2.52,36.62h-25.25ZM263.71,306.48c-30.3-.63-64.71,4.74-64.71,34.41,0,17.99,11.99,26.51,26.2,26.51,19.89,0,32.51-12.63,36.93-25.57.95-2.84,1.58-6,1.58-8.84v-26.52Z"/>
      <path class="cls-3" d="M419.95,384.45l-2.21-19.25h-.95c-8.52,12-24.94,22.73-46.72,22.73-30.93,0-46.72-21.78-46.72-43.88,0-36.93,32.83-57.13,91.86-56.82v-3.16c0-12.63-3.47-35.35-34.72-35.35-14.2,0-29.04,4.42-39.77,11.36l-6.31-18.31c12.63-8.21,30.93-13.57,50.19-13.57,46.72,0,58.08,31.88,58.08,62.5v57.13c0,13.26.63,26.2,2.52,36.62h-25.25ZM415.85,306.48c-30.3-.63-64.71,4.74-64.71,34.41,0,17.99,11.99,26.51,26.2,26.51,19.89,0,32.51-12.63,36.93-25.57.95-2.84,1.58-6,1.58-8.84v-26.52Z"/>
      <path class="cls-5" d="M487.5,279.33c0-17.99-.32-33.46-1.26-47.66h24.31l.95,29.99h1.26c6.94-20.52,23.67-33.46,42.3-33.46,3.16,0,5.37.32,7.89.95v26.2c-2.84-.63-5.68-.95-9.47-.95-19.57,0-33.46,14.84-37.25,35.67-.63,3.79-1.26,8.21-1.26,12.94v81.44h-27.46v-105.11Z"/>
      <path class="cls-3" d="M673.74,384.45l-2.21-19.25h-.95c-8.52,12-24.94,22.73-46.72,22.73-30.93,0-46.72-21.78-46.72-43.88,0-36.93,32.83-57.13,91.86-56.82v-3.16c0-12.63-3.47-35.35-34.72-35.35-14.2,0-29.04,4.42-39.77,11.36l-6.31-18.31c12.63-8.21,30.93-13.57,50.19-13.57,46.72,0,58.08,31.88,58.08,62.5v57.13c0,13.26.63,26.2,2.52,36.62h-25.25ZM669.63,306.48c-30.3-.63-64.71,4.74-64.71,34.41,0,17.99,11.99,26.51,26.2,26.51,19.89,0,32.51-12.63,36.93-25.57.95-2.84,1.58-6,1.58-8.84v-26.52Z"/>
      <path class="cls-3" d="M741.28,273.02c0-15.78-.32-28.72-1.26-41.35h24.31l1.26,24.62h.95c8.52-14.52,22.73-28.09,47.98-28.09,20.83,0,36.62,12.63,43.25,30.62h.63c4.73-8.52,10.73-15.15,17.05-19.89,9.15-6.94,19.26-10.73,33.78-10.73,20.2,0,50.19,13.26,50.19,66.29v89.96h-27.15v-86.49c0-29.36-10.73-47.03-33.14-47.03-15.78,0-28.09,11.68-32.83,25.25-1.26,3.79-2.21,8.84-2.21,13.89v94.38h-27.15v-91.54c0-24.31-10.73-41.98-31.88-41.98-17.36,0-29.99,13.89-34.41,27.78-1.58,4.1-2.21,8.84-2.21,13.57v92.17h-27.15v-111.43Z"/>
      <path class="cls-3" d="M1003.27,384.45c.63-10.42,1.26-25.88,1.26-39.46v-184.66h27.46v95.96h.63c9.79-17.05,27.46-28.09,52.08-28.09,37.88,0,64.71,31.57,64.39,77.97,0,54.61-34.41,81.76-68.5,81.76-22.1,0-39.77-8.52-51.14-28.73h-.95l-1.26,25.25h-23.99ZM1032,323.21c0,3.47.63,6.94,1.26,10.1,5.37,19.25,21.46,32.51,41.67,32.51,29.04,0,46.4-23.67,46.4-58.71,0-30.62-15.78-56.82-45.46-56.82-18.94,0-36.62,12.94-42.3,34.09-.63,3.16-1.58,6.94-1.58,11.36v27.46Z"/>
      <path class="cls-3" d="M1184.14,160.33h27.78v95.33h.63c4.42-7.89,11.36-14.84,19.89-19.57,8.21-4.74,17.99-7.89,28.41-7.89,20.52,0,53.35,12.63,53.35,65.34v90.91h-27.78v-87.75c0-24.62-9.15-45.46-35.35-45.46-17.99,0-32.2,12.63-37.25,27.78-1.58,3.79-1.89,7.89-1.89,13.26v92.17h-27.78v-224.12Z"/>
      <path class="cls-3" d="M1443.92,384.45l-2.21-19.25h-.95c-8.52,12-24.94,22.73-46.72,22.73-30.93,0-46.72-21.78-46.72-43.88,0-36.93,32.83-57.13,91.86-56.82v-3.16c0-12.63-3.47-35.35-34.72-35.35-14.21,0-29.04,4.42-39.77,11.36l-6.31-18.31c12.63-8.21,30.93-13.57,50.19-13.57,46.72,0,58.08,31.88,58.08,62.5v57.13c0,13.26.63,26.2,2.53,36.62h-25.25ZM1439.81,306.48c-30.3-.63-64.71,4.74-64.71,34.41,0,17.99,12,26.51,26.2,26.51,19.89,0,32.51-12.63,36.93-25.57.95-2.84,1.58-6,1.58-8.84v-26.52Z"/>
      <path class="cls-3" d="M1511.46,279.33c0-17.99-.32-33.46-1.26-47.66h24.31l.95,29.99h1.26c6.94-20.52,23.67-33.46,42.3-33.46,3.16,0,5.37.32,7.89.95v26.2c-2.84-.63-5.68-.95-9.47-.95-19.57,0-33.46,14.84-37.25,35.67-.63,3.79-1.26,8.21-1.26,12.94v81.44h-27.46v-105.11Z"/>
      <path class="cls-3" d="M1646.88,188.74c.32,9.47-6.63,17.05-17.68,17.05-9.79,0-16.73-7.58-16.73-17.05s7.26-17.36,17.36-17.36,17.05,7.58,17.05,17.36ZM1615.94,384.45v-152.78h27.78v152.78h-27.78Z"/>
      <path class="cls-4" d="M1699.9,231.67l33.46,90.28c3.47,10.1,7.26,22.1,9.79,31.25h.63c2.84-9.15,6-20.83,9.79-31.88l30.3-89.65h29.36l-41.67,108.9c-19.89,52.4-33.46,79.23-52.4,95.64-13.57,12-27.15,16.73-34.09,17.99l-6.95-23.36c6.95-2.21,16.1-6.63,24.31-13.57,7.58-6,17.05-16.73,23.36-30.93,1.26-2.84,2.21-5.05,2.21-6.63s-.63-3.79-1.89-7.26l-56.5-140.78h30.3Z"/>
      <path class="cls-3" d="M1921.81,384.45l-2.21-19.25h-.95c-8.52,12-24.94,22.73-46.72,22.73-30.93,0-46.72-21.78-46.72-43.88,0-36.93,32.83-57.13,91.86-56.82v-3.16c0-12.63-3.47-35.35-34.72-35.35-14.21,0-29.04,4.42-39.77,11.36l-6.31-18.31c12.63-8.21,30.93-13.57,50.19-13.57,46.72,0,58.08,31.88,58.08,62.5v57.13c0,13.26.63,26.2,2.53,36.62h-25.25ZM1917.7,306.48c-30.3-.63-64.71,4.74-64.71,34.41,0,17.99,12,26.51,26.2,26.51,19.89,0,32.51-12.63,36.93-25.57.95-2.84,1.58-6,1.58-8.84v-26.52Z"/>
    </g>
    <g>
      <circle class="cls-1" cx="1962.38" cy="186.9" r="27.04"/>
      <g>
        <path class="cls-7" d="M1947.87,179.45h-6.67v-2.41h16.25v2.41h-6.71v19.54h-2.87v-19.54Z"/>
        <path class="cls-7" d="M1978.38,189.35c-.16-3.06-.36-6.74-.33-9.48h-.1c-.75,2.57-1.66,5.31-2.77,8.34l-3.88,10.65h-2.15l-3.55-10.45c-1.04-3.09-1.92-5.93-2.54-8.53h-.07c-.07,2.74-.23,6.42-.42,9.7l-.59,9.41h-2.7l1.53-21.95h3.61l3.75,10.62c.91,2.7,1.66,5.11,2.21,7.39h.1c.55-2.21,1.33-4.62,2.31-7.39l3.91-10.62h3.61l1.37,21.95h-2.77l-.55-9.64Z"/>
      </g>
    </g>
    <path class="cls-4" d="M1853.44,115.27c8.84,8.71,15.13,21.23,17.55,33.39,6.45,32.45-9.33,50.71-34.58,67.49-.73.48-4.96,3.54-5.41,3.12,3.01-7.89,8.61-15.59,10.55-23.79,4.47-18.96.07-39.53-9.71-56.08-6.53-11.05-15.67-20.25-22.61-30.87-3.49-5.34-6.03-11.5-10.04-16.47,2.36,16.78,14.21,29.23,22.21,43.48,12.21,21.75,19.79,46.68,8,70.38-6.4,12.86-16.95,27.77-24.77,40.23-2.79,4.45-5.54,8.99-8.67,13.22l-3.24-26.73c-1.74,0-2.83,1.5-4.48,2.2-9.81,4.16-23.34,1.53-32.58-3.18-11.67-5.94-18.73-17.03-26.11-27.38-.12-.94.04-.6.68-.68,5.85-.78,13.56,1.27,20.24.41s13.31-4.67,20.33-5.03c15.77-.81,25.19,10.41,26.07,25.37-4.16-5.24-7.92-11.37-14.65-13.7-6.74-2.33-18.53-1.38-25.57,0-.81.16-2.79.4-3.12,1.25,11.26.18,25.83-.76,34.35,7.84,4.99,5.03,7.64,12.17,11.54,17.97l14.95-20.57c.22-1.2-4.87-3.42-5.92-4.12-35.01-23.06-47.96-58.83-39.56-99.85,4.38-21.39,12.79-43.57,21.14-63.68l5.93-10.89c.63,9.36,1.69,18.91,5.32,27.64,8.42,20.3,37,34.08,52.17,49.03Z"/>
    <path class="cls-6" d="M513.16,380.12c.77-.01,1.8,1.66,1.77,2.42-.34,7.22,4.68,32.79,6.55,34.13,4.49,3.24,23.69-4.42,28.2-7.39,3.87-2.55,7.35-13.43,10.2-14.84,3.49-1.73-.77,4.26-.99,4.8-.43,1.09-2.71,7.43-2.39,7.71,8.54-.92,16.06,1.12,22.14,7.23-3.3.58-5.87-2.78-9.2-3.31-12.14-1.93-20.94,5.92-30.28,11.98,19.11,1.93,29.77,15.26,29.84,34.19-4.89-5.93-3.03-16.08-11.07-20.22l-6.24,16.36c-1.06-4.56,3.33-17.32-.67-20.29-6.85-5.08-23.14,2.65-31.11-2.82-1.65,8.98,9.34,11.65,14.9,16.39,10.48,8.93,6.7,13.68,11.52,23.15,3.31,6.51,11.68,10.26,10.16,19.2l-2.88-7.22c-2.47-3.83-8.6-5.24-9.65-10.1l-6.72,14.44c1.25-9.92,5.64-17.88-1.46-26.96-2.98,7.38-12.63,12.17-19.74,15.4,3.76-5.23,16.19-10.29,15.24-17.55-1.08-8.26-12.11-8.81-16.68-14.21l-3.36,3.84.79-6.01-8.99-17.1c-3.91,6.34-9.88,11.39-12.02,18.81,5.4,7.63,9.56,14.78,7.68,24.53l-3.12-10.84c-.93-1.29-5.83-8.92-7.46-7.46-6.25,15.94,5.06,31.14.95,47.19l-6.74-26.96c-3.98,4.58-7.87,7.83-14.43,6.73l6.27-2.86c6.93-6.09,4.37-14.89,5.4-22.53,1.44-10.74,5-19.79,9.51-29.49l-23.15,11.99c-10.69,17.2-12.38,36.51-38.48,32.3l17.81-5.78,2.41-2.87-5.77-1.93c9.35,2.64,11.5-8.7,11.06-15.43l-20.69,4.82,9.62-4.82-6.73-1.9c7.21-.31,14.33-1.16,20.93-4.12l7-12.25c-7.4-1.73-15.17-9.28-22.66-9.69-7.24-.4-12.2,5.49-18.5,6.56-3.3.56-11.16,1.29-12.77-1.69,6.43.63,11.78-.8,17.34-3.88l-7.7-8.64c3.85,1.1,7.01,4.47,11.2,4.78,4.9.37,11.41-5.24,17.65-1.92,1.27-3.84,1.99-7.29-.92-10.56,7.26-.35,4.71,10.49,7.73,12.97,4.93,4.05,25.28,5.51,28.67-1.14,2.1-4.13,3.78-25.2,5.86-26.7l24.2-.41Z"/>
  </g>
  <g>
    <g>
      <path class="cls-3" d="M551.39,532.55l-.07.38c-.07.39-.39.78-.96,1.16s-1.14.58-1.71.58c-1.44,0-2.16-.68-2.16-2.05,0-.48.37-1.07,1.11-1.76.74-.7,1.73-1.18,2.98-1.46,1.24-.27,2.13-.54,2.67-.8.54-.26,1.36-.46,2.48-.6.18.18.36.27.55.27.3,0,.5-.1.62-.31.11-.21.38-.26.79-.17h.17l1.81-.48.55.21c.09,0,.2-.05.33-.14.12-.09.28-.16.46-.21h.55l.65-.14c.5-.14.8-.24.89-.31l.58.07c.43,0,1.15-.11,2.14-.34.99-.23,1.75-.35,2.26-.38.51-.02.89-.06,1.13-.1.24-.05.38-.07.43-.07.14,0,.31.07.51.21.21.14.35.21.44.21s.73-.14,1.92-.41h.21l1.54.34c.41-.23.68-.34.82-.34.48,0,.88.16,1.2.48l.65-.27.34.07c.14,0,.34-.02.62-.07h.27c.16,0,.33.02.51.07.05.05.09.07.14.07.23,0,.41-.02.55-.07h.45l1.47.34.62-.07s.18.07.41.21l.38-.07c.23.16.64.38,1.23.65.11-.05.29-.09.51-.14h.07s.27.14.68.41l.99.48.27-.14c.64.32.97.5.99.55l.27.58c.27.14.58.32.92.55.07.23.2.49.41.79v.27s.18.21.53.5c.35.29.53.5.53.63,0,.05-.02.21-.07.48v.07s.08.19.24.45.24.55.24.89l-.07.48.07.44-.34,2.29c-.21.23-.34.45-.41.67-.07.22-.24.38-.51.5-.27.11-.5.35-.67.7-.17.35-.42.59-.74.7s-.62.31-.91.6-.61.43-.98.43l-3.67,1.09-.41-.14c-.41.66-1.02.99-1.82.99-.21,0-.66.08-1.37.24l-.69.17-.55-.07-1.27.24c-.39.07-.67.15-.86.26-.18.1-.41.15-.69.15l-.92.48s-.12.07-.21.07c-.18,0-.3-.02-.34-.07l-.48-.14c-.18.05-.35.13-.5.24-.15.11-.29.17-.43.17l-.41-.34-.65.55c-.27.05-.64.15-1.1.31-.3-.16-.49-.24-.58-.24l-1.2.51-.69-.21-.07.21c-.32,0-.65.11-.98.34-.33.23-.61.34-.84.34-.16,0-.33-.09-.51-.27-.09,0-.18-.04-.27-.14-.23.16-.4.33-.51.5-.11.17-.37.34-.75.5l-.82-.24c0,.07-.22.19-.65.36-.43.17-.66.31-.69.43l-.34.48c-.16.39-.29.71-.38.96-.09.25-.21.45-.34.6-.14.15-.26.41-.38.77-.11.37-.32.76-.62,1.2l-.07.41c-.14.18-.34.39-.62.62l-.79,1.47c-.23.34-.34.58-.34.72,0,.34.31.67.92.99l3.63,3.08.58.34h.07l-.14.62c.18.12.3.17.34.17.14,0,.21-.1.21-.31h.21s.16.1.34.31l.38.21c.16.16.46.42.89.79.43.37.65.62.65.75l-.07.27h.21c.09-.09.16-.14.21-.14.09,0,.34.14.75.41l.45.21c.91.66,1.47,1.11,1.66,1.33.19.23.48.48.86.77.38.29.68.61.91.98l3.94,2.94c3.29,2.46,5.14,4.11,5.55,4.93.09.14.31.27.65.41.34.14.83.52,1.47,1.15.64.63,1.03,1.11,1.16,1.45v1.2c0,.09-.11.21-.34.34l-.44.41c-.59.62-1.11.92-1.54.92-1.07,0-1.86-.24-2.36-.72l-.17-.07h-.34c-.37,0-.57-.32-.62-.96l-.14-.45c-1.14-.37-2.01-.95-2.6-1.75l-1.95-1.81s-.42-.49-1.13-1.32c-.71-.83-1.33-1.43-1.86-1.8-.54-.36-.96-.74-1.27-1.13-.31-.39-.72-.75-1.23-1.09-.51-.34-1.06-.92-1.62-1.73-.57-.81-.89-1.24-.96-1.28-1.03-.55-1.52-1.15-1.47-1.81-.14-.09-.47-.18-.99-.27-.27-.3-.44-.46-.51-.48-.07-.02-.13-.06-.17-.1l.07-.55c-.68-.21-1.16-.46-1.44-.77-.27-.31-.64-.72-1.1-1.25-.46-.53-.85-.93-1.18-1.21s-.51-.51-.53-.67c-.02-.16-.24-.35-.65-.58-.16.27-.33.49-.51.65-.18.16-.32.34-.41.55l-.14.21c-.32.32-.48.67-.48,1.06-.34.27-.56.76-.65,1.47l-1.54,3.49-.27,1.27-.2,2.16c-.07.62-.33.92-.78.92l-.68.07c-.18-.09-.61-.18-1.28-.26-.67-.08-1.22-.75-1.65-2-.05-.14-.18-.36-.39-.68-.22-.32-.32-.6-.32-.86,0-.18.07-.48.21-.89l.14-.79c0-.14.29-.79.85-1.95l1.81-3.46.89-1.33c.11-.18.24-.53.38-1.04.14-.51.35-.94.63-1.28.29-.34.43-.59.43-.75,0-.27-.21-.55-.63-.82-.42-.27-.66-.54-.7-.79l-.14-.34c-1.21-.71-1.81-1.51-1.81-2.4,0-.48.6-1.08,1.81-1.8,1.21-.72,2.02-1.12,2.44-1.21.42-.09.84-.25,1.25-.48l.58-.14.48-.41c.27-.09.61-.18,1.01-.26s.74-.55,1.03-1.4.54-1.35.77-1.49c.46-.94.76-1.64.92-2.12.05-.09.18-.3.39-.63.22-.33.44-.88.67-1.64.23-.76.39-1.15.48-1.15s.27-.04.55-.14l-.34-.92c0-.09.09-.23.27-.41-.32-.39-.48-.86-.48-1.4,0-.89.63-1.33,1.88-1.33.23,0,.68.2,1.37.6.68.4,1.05.69,1.09.87.05.18.19.47.44.87.25.4.38.74.38,1.01,0,.89-.15,1.47-.44,1.75-.3.27-.6.88-.92,1.81l-.92,2.6-.14.65-.17.27.86-.21c.18-.5.96-.79,2.33-.86l2.16-.68h.65l2.09-.58c.09,0,.42-.05.99-.14h.21l.41-.07c.09.05.18.14.27.27h.14c.25,0,.39-.15.41-.45.02-.3.35-.45.99-.45.09,0,.18.06.26.17.08.11.17.17.26.17.05-.25.22-.43.53-.53.31-.1.53-.15.67-.15l.55.07s-.07-.11-.07-.21c0-.21.7-.42,2.09-.65.39-.14.7-.31.93-.51.23-.21.95-.5,2.16-.89l2.06-.62c.85-.27,1.43-1.09,1.75-2.46-.05-.05-.25-.35-.62-.92,0-.05-.17-.07-.51-.07-.09-.09-.25-.2-.48-.33s-.49-.34-.79-.63l-.41.14c-.32-.18-.69-.33-1.11-.43-.42-.1-.87-.34-1.35-.7-.18.09-.3.14-.34.14s-.3-.11-.75-.34l-.92-.41h-.55l-.24-.07c-.14-.16-.25-.24-.34-.24l-.34.07c-.09.05-.21.07-.34.07h-.58s-.23-.11-.55-.34h-1.13l-.62.14c-.09,0-.24-.09-.44-.27l-.62.14-.62-.27-.92.14c-.18-.14-.32-.21-.41-.21l-2.74.27c-.09,0-.17-.05-.24-.14-.07-.09-.18-.16-.33-.21-.15-.04-.31-.14-.5-.27-.48.27-.95.41-1.4.41l-1.06-.14-.21.07h-.14s-.25-.04-.62-.14c0,.09-.02.16-.07.21l-.51-.14-1.88.34h-.07l-.34-.07c-.09,0-.22.04-.39.1-.17.07-.3.1-.39.1l-.75-.07-.58.14-.82-.07-.72.51h-.14c-.09,0-.19-.04-.31-.12-.11-.08-.19-.12-.24-.12l-.51.1-.41-.1c-.09,0-.27.22-.55.65,0,.05-.05.07-.14.07h-.07l-.51-.14c-.09,0-.27.16-.55.48-.43.16-.86.33-1.27.51-.32.46-.59.73-.82.82l-.58.27ZM553.66,548.74h-.86c-.14,0-.38.13-.74.39-.35.26-.53.44-.53.53s.27.35.8.77.87.63,1.01.63c.41,0,.9-.94,1.47-2.81l-.34.14-.41-.07c-.27.23-.41.37-.41.41Z"/>
      <path class="cls-3" d="M600.25,565.23l-1.61,1.4c-.09-.09-.18-.14-.27-.14-.23,0-.51.21-.84.62-.33.41-.57.62-.7.62l-.34-.07c-.57.43-.98.68-1.23.75-.25.07-.55.19-.91.38-.35.18-.67.29-.96.31-.29.02-.52.12-.7.29-.18.17-.63.26-1.33.26l-.55-.07c-.3.14-.49.21-.58.21-.18,0-.38-.1-.58-.29-.21-.19-.43-.3-.67-.33-.24-.02-.48-.18-.74-.48-.25-.3-.48-.5-.7-.62-.22-.11-.39-.27-.53-.48l-.48-.41c-.39-.27-.77-.78-1.13-1.51-.37-.73-.55-1.3-.55-1.71v-.14l.07-.65-.07-.75c.09-.09.21-.29.34-.58v-1.09l.82-2.74c.05-.11-.05-.26-.27-.44-.23.34-.46.55-.69.62-.23.07-.38.23-.46.48-.08.25-.21.38-.4.38l-.41-.14s-.15.28-.31.7-.44.63-.83.63c-.41,0-.62-.16-.62-.48l.07-.62-.21-.86c0-.18.18-.54.55-1.08s.7-.84,1.01-.92c.31-.08.57-.3.79-.65.22-.35.69-.78,1.42-1.28.41-.09.77-.39,1.06-.89.32-.25.74-.46,1.25-.62.51-.16.9-.39,1.17-.7s1.04-.79,2.33-1.44,2.23-.98,2.83-.98c.18,0,.43-.05.75-.15.32-.1.62-.19.89-.27.27-.08.56-.21.86-.38.3-.17.54-.26.72-.26l.99.34c.73.21,1.18.35,1.34.45.05.05.28.14.7.29.42.15.86.35,1.3.6s.67.72.67,1.4c-.39.57-.58.88-.58.92,0,.09.26.23.79.41.18.34.46.79.82,1.33l.38,1.2.07,2.81-.07.27c-.25.23-.38.38-.38.45l.1.68-.27.96c-.07.3-.18.49-.34.58-.16.09-.26.21-.31.34l-.21.27c-.05.07-.14.27-.29.6-.15.33-.31.59-.5.77-.18.18-.3.4-.34.65-.05.25-.16.43-.34.55-.18.11-.31.23-.39.36s-.21.23-.39.33ZM589.61,566.12l.14.79.07.07h.55l.17.07c.46.09.8.14,1.02.14.71,0,1.27-.18,1.69-.53.42-.35.76-.53,1.01-.53s.46-.17.63-.51c.17-.34.28-.51.32-.51h.48l.14-.07c0-.52.23-.9.7-1.13.47-.23.8-.53.99-.91.19-.38.42-.66.67-.86.25-.19.42-.45.51-.77l.27-.41c.09-.09.14-.26.14-.51l.65-1.23c.14-.57.21-1.02.21-1.33,0-.48-.24-.86-.73-1.13-.49-.27-.73-.81-.73-1.61,0-.52.27-1.01.8-1.45s.8-.71.8-.8c0-.14-.07-.21-.21-.21-.07,0-.33.09-.79.27-.16.32-.97.74-2.42,1.27-.48-.23-.74-.34-.79-.34-.14,0-.27.14-.41.41-.14.27-.27.47-.41.58h-.44s-.19.15-.44.45c-.25.3-.57.44-.96.44l-.41.41c.02.37-.2.74-.68,1.13l-.38.45c-.23.27-.52.59-.89.96l-.62,1.54c-.25.59-.38,1.04-.38,1.33-.07.14-.22.28-.46.43-.24.15-.36.34-.36.56,0,.05.08.16.24.34.16.18.24.32.24.41l-.14.45-.14,1.27.34,1.1Z"/>
      <path class="cls-3" d="M625.6,565.23l-1.61,1.4c-.09-.09-.18-.14-.27-.14-.23,0-.51.21-.84.62-.33.41-.57.62-.7.62l-.34-.07c-.57.43-.98.68-1.23.75-.25.07-.55.19-.91.38-.35.18-.67.29-.96.31-.29.02-.52.12-.7.29-.18.17-.63.26-1.33.26l-.55-.07c-.3.14-.49.21-.58.21-.18,0-.38-.1-.58-.29-.21-.19-.43-.3-.67-.33-.24-.02-.48-.18-.74-.48-.25-.3-.48-.5-.7-.62-.22-.11-.39-.27-.53-.48l-.48-.41c-.39-.27-.77-.78-1.13-1.51-.37-.73-.55-1.3-.55-1.71v-.14l.07-.65-.07-.75c.09-.09.21-.29.34-.58v-1.09l.82-2.74c.05-.11-.05-.26-.27-.44-.23.34-.46.55-.69.62-.23.07-.38.23-.46.48-.08.25-.21.38-.4.38l-.41-.14s-.15.28-.31.7-.44.63-.83.63c-.41,0-.62-.16-.62-.48l.07-.62-.21-.86c0-.18.18-.54.55-1.08s.7-.84,1.01-.92c.31-.08.57-.3.79-.65.22-.35.69-.78,1.42-1.28.41-.09.77-.39,1.06-.89.32-.25.74-.46,1.25-.62.51-.16.9-.39,1.17-.7s1.04-.79,2.33-1.44,2.23-.98,2.83-.98c.18,0,.43-.05.75-.15.32-.1.62-.19.89-.27.27-.08.56-.21.86-.38.3-.17.54-.26.72-.26l.99.34c.73.21,1.18.35,1.34.45.05.05.28.14.7.29.42.15.86.35,1.3.6s.67.72.67,1.4c-.39.57-.58.88-.58.92,0,.09.26.23.79.41.18.34.46.79.82,1.33l.38,1.2.07,2.81-.07.27c-.25.23-.38.38-.38.45l.1.68-.27.96c-.07.3-.18.49-.34.58-.16.09-.26.21-.31.34l-.21.27c-.05.07-.14.27-.29.6-.15.33-.31.59-.5.77-.18.18-.3.4-.34.65-.05.25-.16.43-.34.55-.18.11-.31.23-.39.36s-.21.23-.39.33ZM614.97,566.12l.14.79.07.07h.55l.17.07c.46.09.8.14,1.02.14.71,0,1.27-.18,1.69-.53.42-.35.76-.53,1.01-.53s.46-.17.63-.51c.17-.34.28-.51.32-.51h.48l.14-.07c0-.52.23-.9.7-1.13.47-.23.8-.53.99-.91.19-.38.42-.66.67-.86.25-.19.42-.45.51-.77l.27-.41c.09-.09.14-.26.14-.51l.65-1.23c.14-.57.21-1.02.21-1.33,0-.48-.24-.86-.73-1.13-.49-.27-.73-.81-.73-1.61,0-.52.27-1.01.8-1.45s.8-.71.8-.8c0-.14-.07-.21-.21-.21-.07,0-.33.09-.79.27-.16.32-.97.74-2.42,1.27-.48-.23-.74-.34-.79-.34-.14,0-.27.14-.41.41-.14.27-.27.47-.41.58h-.44s-.19.15-.44.45c-.25.3-.57.44-.96.44l-.41.41c.02.37-.2.74-.68,1.13l-.38.45c-.23.27-.52.59-.89.96l-.62,1.54c-.25.59-.38,1.04-.38,1.33-.07.14-.22.28-.46.43-.24.15-.36.34-.36.56,0,.05.08.16.24.34.16.18.24.32.24.41l-.14.45-.14,1.27.34,1.1Z"/>
      <path class="cls-3" d="M643.04,537.89l.48-.14.34-.34h.07l.31.14h.07c.55,0,1.03-.11,1.46-.33.43-.22.78-.37,1.07-.46.29-.09.47-.16.54-.21.07-.05.13-.07.17-.07l.55.07c.18,0,.43-.33.74-.98.31-.65.66-1.12,1.04-1.42s.78-.86,1.16-1.68c.09-.11.19-.29.31-.53.11-.24.21-.36.27-.36.34,0,.62-.22.82-.65.68-.8,1.24-1.2,1.68-1.2.57,0,.97.55,1.2,1.64l.34,1.3s-.06.19-.17.5c-.11.31-.17.62-.15.92.01.31,0,.51-.03.62-.03.1-.05.22-.05.36,0,.18.19.27.58.27.14,0,.39-.09.75-.27l.21-.07c.23.14.42.21.58.21.05,0,.37-.11.98-.34.6-.23.99-.35,1.15-.38.16-.02.43-.11.82-.27h.41l.27.1c.09,0,.28-.1.56-.29.29-.19.83-.31,1.63-.36l.48-.21h.14c.75,0,1.13.33,1.13.99,0,.14-.11.38-.33.72-.22.34-.39.73-.53,1.16l-1.57,1.98c-.53.68-1.05,1.03-1.57,1.03-.09,0-.38-.31-.86-.92,0-.04-.05-.07-.14-.07-.23,0-.47.05-.72.14-.25.09-.46.14-.62.14-.07,0-.67.17-1.81.51l-.82.14c-.09,0-.31.05-.65.14l-1.75.34c-.59.3-1.06.86-1.4,1.68,0,.05-.11.15-.34.31l-1.54,2.81c-.5.14-.83.43-.99.89l-.14.21c-.25.05-.48.19-.69.43s-.4.43-.58.56l-.62.92c-.25.32-.5.67-.75,1.04-.25.38-.43.78-.55,1.2-.11.42-.21.67-.27.74s-.1.19-.1.38l-.1.27c-.27.27-.41.58-.41.92l.14.55c-.32,1.1-.48,1.68-.48,1.75,0,.05.02.17.07.38v.21c0,.5-.18,1.13-.55,1.88l.07.55-.21,1.54c0,.21.07.58.21,1.13-.09.09-.14.16-.14.21,0,.64.34,1.34,1.01,2.1.67.77,1.01,1.96,1.01,3.58,0,.14-.03.34-.1.6-.07.26-.11.55-.14.86-.02.31-.2.61-.53.91s-.61.44-.84.44c-1.21,0-2.12-.88-2.71-2.63-.59-1.76-.89-2.89-.89-3.39l.07-1.33-.21-.68.21-3.01-.14-.72.79-2.94v-1.06s.16-.23.48-.55c0-.05-.05-.07-.14-.07-.14,0-.32.14-.55.41-.23.27-.51.54-.86.79l-.27.48s-.14-.09-.27-.14c-.11.05-.49.58-1.13,1.61-.48.07-.86.34-1.13.82s-.65.72-1.13.72l-.14.07c-.09.66-.41.99-.96.99l-.14.07c-.34.78-.7,1.15-1.06,1.13-.23.68-.79,1.15-1.68,1.4-.14.27-.34.48-.6.62-.26.14-.45.26-.57.38-.11.11-.22.17-.31.17-.3,0-.45-.32-.45-.96,0-.18.07-.38.22-.6.15-.22.22-.37.22-.46,0-.05-.11-.18-.34-.41,0-.71.18-1.15.55-1.33.37-.18.64-.44.82-.79.11-.27.34-.47.69-.58.34-.11.51-.26.51-.45,0-.16.3-.48.89-.96.59-.48,1.03-.9,1.3-1.25s.5-.53.69-.53l.14-.14c.05-.57.26-.86.65-.86l.34-.21.07-.27.21-.14h.27l.17-.14c.05-.57.31-1.01.8-1.33.49-.32,1.39-1.21,2.69-2.69s2.03-2.41,2.19-2.82c.16-.41.45-.96.87-1.66.42-.7.66-1.35.7-1.97-.05-.09-.11-.18-.21-.27l-1.47.72c0-.07-.23-.17-.68-.31-.34.21-.59.41-.75.62-.16.21-.29.31-.38.31l-.48-.07-1.51.17c-1.35.11-2.36.39-3.05.82l-1.4.41h-.31c-.18,0-.46.12-.82.34l-.79-.07c-.73.39-1.27.58-1.61.58-.05,0-.18-.02-.41-.07l-3.49.96c-.27.09-.89.56-1.85,1.4l-.27.07c-.23,0-.5-.26-.8-.77s-.46-.98-.46-1.39c0-2.26,1.94-3.57,5.82-3.94l1.4-.55h.07l.38.14h.14c.14,0,.35-.09.65-.26.3-.17.96-.38,1.99-.63l1.4-.38.44.07c.23,0,.48-.09.77-.27s.72-.31,1.3-.39c.58-.08.99-.17,1.21-.26l.55-.14c.09,0,.28-.08.56-.24.29-.16.66-.24,1.11-.24.07,0,.24.05.51.14Z"/>
      <path class="cls-3" d="M657.14,554.86l.72-.58c.55-.04.84-.33.89-.86.05-.52.42-.98,1.13-1.37l.41-.58c.34-.34,1.28-.79,2.8-1.33.39-.23.65-.43.79-.62.05-.05.09-.07.14-.07l.55.14c.3,0,.68-.08,1.15-.24.47-.16.92-.24,1.35-.24l1.44-.07c.09,0,.28.07.56.21.29.14.63.21,1.04.21.5,0,.96.23,1.39.68s.63.88.63,1.27c0,.71-.36,1.43-1.09,2.16-.73.73-1.31,1.14-1.74,1.23-.39.39-.68.63-.89.74-.21.1-.42.26-.63.48-.22.22-.39.33-.53.33-.09,0-.16-.03-.21-.09-.05-.06-.11-.08-.21-.08-.36,0-.76.44-1.19,1.33l-.62-.07c-.39.25-.64.53-.75.82-.11.3-.35.44-.72.44-.84.84-1.41,1.27-1.71,1.27-.05,0-.21-.05-.48-.14-.18.23-.27.47-.27.72,0,.27-.18.43-.55.48l-.44.41-.34-.07-.68.72c-.34,0-.69.11-1.06.34-.05.27-.11.62-.21,1.04-.09.42-.14.66-.14.7,0,.66.6.99,1.81.99l1.64-.24c.43,0,.84-.11,1.22-.34.38-.23.78-.34,1.22-.34.14,0,.34-.04.62-.14l.34.14c.16-.34.46-.65.89-.92.43-.27.78-.41,1.03-.41l.34-.21c.09-.27.23-.46.41-.55l.27-.24c.18-.18.35-.27.51-.27h.48l.14-.07c.27-.59.66-.94,1.15-1.04.49-.1.8-.27.92-.5.12-.23.35-.37.67-.41.32-.04.59-.2.8-.46.22-.26.48-.51.8-.74s.54-.4.67-.51c.12-.11.23-.17.32-.17.14,0,.21.1.21.31s.05.31.14.31.14-.05.14-.14-.02-.21-.07-.34v-.24c0-.34.18-.57.55-.68l1.54-.99c.05-.48.18-.76.39-.84s.38-.17.5-.27c.11-.1.24-.15.38-.15.3,0,.45.17.45.51l-.17.89.17.92c0,.14-.11.33-.33.56-.22.24-.38.6-.5,1.1-.11.49-.26.76-.45.8h-.21c-.41.43-.74.69-.98.77-.24.08-.43.22-.57.43l-1.16,1.33c-.23.23-.42.43-.58.62-.16.18-.29.27-.38.27l-.27-.27s-.05-.07-.14-.07c-.23,0-.37.14-.43.41-.06.27-.18.51-.36.72-.69.32-1.13.62-1.34.89l-.21.07h-.62c-.3,0-.5.22-.62.67-.11.45-.44.7-.98.77-.54.07-.92.21-1.15.41-.05.05-.15.09-.31.14-.16.05-.48.23-.96.55l-2.88,1.03c-.23.11-.38.17-.45.17l-.96.14c-.14,0-.27-.09-.41-.27s-.23-.27-.27-.27l-.62.21c-.46.14-.89.21-1.3.21-.23,0-.48-.08-.75-.24-.27-.16-.49-.27-.65-.34-.66,0-1.13-.51-1.4-1.54l-.41.07c-.09,0-.4-.81-.92-2.43-.14-.18-.35-.31-.65-.39-.3-.08-.45-.3-.45-.67,0-1.03.22-1.72.67-2.07.44-.35.69-.62.74-.8l.48-1.78c.09-.07.21-.3.34-.68l.79-1.44c.09-.16.3-.56.62-1.2ZM664.38,552.81l-.41.21c-.09.05-.36.25-.8.6-.45.35-.88.64-1.3.86-.42.22-.86.78-1.3,1.69-.45.91-.67,1.44-.67,1.57s.07.21.21.21l1.16-.51c.43-.21.84-.47,1.21-.79.38-.32.92-.71,1.63-1.16l.27-.27c.05-.09.26-.26.63-.5.38-.24.66-.47.84-.7l.34-.14c.39-.62.78-.99,1.18-1.13.4-.14.6-.27.6-.41,0-.27-.22-.41-.65-.41-.18,0-.46.11-.82.34h-.79c-.09,0-.34.14-.75.41l-.58.14Z"/>
      <path class="cls-3" d="M676.57,565.5l-.27-1.75c0-.14.07-.35.21-.65.14,0,.25-.05.34-.14l-.21-.62c0-.8.22-1.49.67-2.07.45-.58.69-.98.74-1.18.05-.21.37-.87.98-2,.6-1.13,1.06-1.85,1.35-2.17l.21-.44.27-.07c.52-.84,1.27-1.61,2.23-2.29.32-.5.71-.91,1.16-1.23.46-.32.77-.55.93-.68s.4-.23.72-.27l.14-.07c.66-.66,1.23-.99,1.71-.99.16-.16.48-.34.96-.55h.38c.14,0,.27-.04.41-.14.14-.09.27-.14.41-.14.09,0,.33.09.72.27.37-.36.66-.55.89-.55.48,0,.96.18,1.46.55.49.37.81.81.94,1.33.14.53.25.83.34.92.09.09.18.21.27.34.18,0,.42-.42.72-1.27l.41-.55c.62-.8,1.04-1.73,1.27-2.81.05-.05.11-.23.21-.56.09-.33.33-.9.72-1.69.67-.96,1.14-1.94,1.41-2.94l.41-.62c.28-.18.42-.38.45-.6s.09-.42.21-.6c.11-.18.25-.41.39-.67.15-.26.27-.44.36-.53.09-.09.23-.41.41-.94.18-.54.4-.84.67-.91.26-.07.53-.19.8-.38l.07-.24-.14-.48c0-.27.3-.75.91-1.44s1.04-1.25,1.3-1.69c.26-.44.71-1.13,1.33-2.05.63-.92,1.08-1.49,1.35-1.69l.79-.82c.36-.52.88-.79,1.54-.79.5,0,1.03.27,1.57.8.55.54.82,1.07.82,1.59,0,.18-.13.6-.38,1.27l-.07.41c0,.37-.13.8-.38,1.3-.25.5-.4.89-.44,1.16l-1.92,4.69c-.23.09-.37.16-.41.21-.59,1.3-1.06,2.01-1.4,2.12v.68c0,.25-.16.43-.48.55l-.14.07c-.21.87-.47,1.5-.79,1.88-.32.39-.55.78-.7,1.18s-.38.62-.7.67c-.32.05-.48.49-.48,1.33-.09.46-.32.68-.68.68-.34,0-.56.3-.65.89-.09.59-.54.91-1.33.96-.23.14-.37.3-.41.48l.27.86c0,.14-.42.67-1.27,1.61l-.27.89c-.43.16-.79,1.33-1.06,3.52l-.41,2.36.07.92-.14.48.41,1.4-.07.79c0,.37.14.55.41.55.14,0,.44-.21.92-.62l.48-.21c1.43-.73,2.32-1.44,2.66-2.12.09-.09.26-.18.5-.27.24-.09.42-.22.53-.38.11-.16.2-.27.27-.34,1.39-.91,2.29-1.71,2.7-2.4.41-.68.83-1.09,1.26-1.23l.27-.27c.27-.23.5-.34.68-.34.39,0,.58.11.58.34l-.27.96c.23.62.34.97.34,1.06,0,.8-.35,1.29-1.06,1.47-.3.3-.53.64-.7,1.03-.17.39-.54.63-1.11.72-.39.55-.74.91-1.06,1.08s-.48.35-.48.53v.31c-.18.27-.34.46-.48.55l-.65-.14c-.09.27-.3.65-.62,1.13-.11-.09-.22-.14-.31-.14-.32,0-.58.19-.79.58-.21.39-.35.58-.44.58h-.79c-.11.07-.3.22-.55.45-.25.23-.67.34-1.27.34l-1.06.21c-1,0-1.93-.33-2.77-.98-.85-.65-1.3-1.24-1.35-1.78-.06-.54-.25-1.18-.56-1.93l-.07-1.4c-.25-1.46-.54-2.19-.86-2.19l-.07.44-.27.14c-.14.71-.37,1.06-.69,1.06-.14.07-.29.18-.45.34l-.21.14c-.09.05-.22.24-.39.58s-.65.82-1.42,1.44c-.32.84-.56,1.27-.72,1.27l-.41-.27h-.07c-.18,0-.33.27-.45.8-.11.54-.34.8-.69.8-.09,0-.18.15-.26.46-.08.31-.28.5-.6.58-.32.08-.61.39-.86.94-.25.55-.42.82-.51.82-.05,0-.11-.02-.21-.07l-.58.14c-.11.16-.27.42-.48.79-.21.07-.39.16-.55.27-.71.68-1.65,1.03-2.81,1.03-.82,0-1.47-.18-1.95-.53-.48-.35-.77-.66-.86-.91-.09-.25-.26-.56-.51-.94-.25-.38-.41-.84-.48-1.39ZM690.24,557.74l.24-.45c.39-.14.64-.48.75-1.03.18-.14.65-.73,1.4-1.78.75-1.05,1.13-1.63,1.13-1.75-.23-.23-.49-.34-.79-.34-.05,0-.18.05-.41.14-.23.09-.46.16-.7.21-.24.05-.5.14-.77.27l-.86-.14c-.25,0-.81.33-1.68.99l-.79-.14c-.14,0-.37.3-.68.89l-1.75,1.4h-.21c-.32,0-.54.29-.65.86-.39.5-.75.85-1.1,1.04-.34.19-.58.47-.72.84v.45c-.64.71-.96,1.24-.96,1.61-.48.46-.79.95-.94,1.47-.15.53-.33.97-.53,1.33.09.32.16.71.21,1.18.05.47.27.7.69.7.66,0,1.39-.4,2.19-1.2.05-.04.24-.17.58-.38s.82-.61,1.42-1.21c.6-.6.94-.92,1.01-.94.23-.23.36-.34.41-.34l.27-.27c0-.09.1-.19.29-.31s.45-.35.77-.7.57-.57.74-.63c.17-.07.29-.17.36-.29.07-.12.18-.25.34-.36.16-.11.24-.24.24-.38l.07-.41.41-.34ZM702.11,543.84l-.34.99c.3-.05.56-.35.79-.92.68-.98,1.15-1.59,1.4-1.81.3,0,.52-.19.67-.56.15-.38.42-.75.8-1.11,0-.16.17-.47.51-.92.34-.46.56-.78.67-.98.1-.19.31-.45.63-.77.32-.32.62-.87.91-1.64.29-.78.53-1.24.74-1.4.21-.16.31-.48.31-.96,0-.66-.05-.99-.14-.99-.21,0-.36.13-.46.39-.1.26-.33.6-.67,1.01l-1.16,1.95c-.46.78-.76,1.39-.91,1.85s-.32.72-.51.8c-.19.08-.43.3-.7.67l-.48.48c-.11.27-.21.61-.27.99l-.31.27v.65c0,.3-.17.56-.51.8-.34.24-.51.39-.51.46l-.45.75Z"/>
      <path class="cls-3" d="M724.13,556.95l.55-.48h.21c.16,0,.4-.17.72-.51l.34-.14c.46-.68.86-1.08,1.2-1.2l.55-.41c.09-.09.22-.17.39-.24.17-.07.45-.29.82-.67.38-.38.68-.56.91-.56s.41.02.55.07c.14-.27.41-.54.82-.8.41-.26.74-.58.99-.94l.45-.21c.37-.18.69-.42.98-.7.29-.29.66-.43,1.11-.43.66,0,1.35.34,2.07,1.01.72.67,1.08,1.32,1.08,1.93l-.58,2.67c-.39,1.96-.82,2.99-1.3,3.08l-.14.72c-.32.23-.48.41-.48.55l.21.82c0,.12-.13.29-.38.51-.05,0-.07.07-.07.21v1.4c0,.25-.16.46-.48.62.05.05.11.09.21.14.14-.14.44-.21.92-.21l.55.07.75-.75c.16-.04.38-.15.67-.33s.77-.39,1.45-.67l4.48-3.42c.61-.62,1.08-.92,1.4-.92.34,0,.51.22.51.65,0,.5-.1.92-.29,1.25-.19.33-.37.73-.53,1.2-.16.47-.35.79-.56.97-.22.18-.39.38-.53.6-.14.22-.51.53-1.11.94-.6.41-1.12.83-1.54,1.25s-.77.72-1.04.91l-1.47,1.06-.21.34s-.26.14-.63.29-.71.34-1.01.56l-.62.34c-.14.09-.36.15-.67.17-.31.02-.58.15-.8.39-.23.24-.41.36-.55.36l-.51-.07-.68.21c-.39,0-.86-.23-1.42-.7s-.84-.96-.84-1.49v-.21l.07-.48c0-.09-.07-.33-.21-.7-.14-.38-.21-.59-.21-.63l.07-.48-.07-.21c0-.62.05-1,.14-1.16.09-.16.16-.38.21-.67.05-.29.09-.52.14-.7l.17-.86c.09-.27.21-.46.34-.55.05-.18.14-.49.27-.92l.14-.62.34-.48c.18-.18.29-.43.33-.74.03-.31.15-.63.36-.97.21-.34.31-.55.31-.62,0-.27-.14-.41-.41-.41-.09,0-.38.18-.86.55l-.62-.21s-.17.11-.38.34c0,.09-.1.16-.31.21-.21.05-.4.22-.58.51l-.27.07-.44-.21h-.14c-.23,0-.37.25-.41.75-.25.37-.58.6-.99.72l-.75.21c-.25.09-.43.3-.55.62-.11.32-.34.61-.68.87-.34.26-.57.39-.68.39-.64,0-.96-.35-.96-1.06l.27-1.61-.07-.21ZM738.92,539.84l-.21-1.33v-.21c0-1.07.36-1.67,1.1-1.78.16-.02.64-.17,1.44-.45.41.09.84.45,1.28,1.08.44.63.67,1.18.67,1.66,0,.05-.03.15-.1.31-.07.16-.11.46-.14.91-.02.45-.25.83-.67,1.16-.42.33-.87.5-1.35.5-.32,0-.72-.22-1.21-.67-.49-.44-.76-.84-.8-1.18Z"/>
      <path class="cls-3" d="M775.49,562.08h.14l.34.14s.09-.02.14-.07c0-.39.18-.72.55-.99.11-.43.37-.76.77-.99.4-.23,1.03-.6,1.9-1.13l.86-.75.41-.21.27-.34c.25-.3.49-.45.72-.45.34,0,.51.13.51.38l-.31.68.14,1.13c0,.41-.14.78-.43,1.1s-.73.79-1.32,1.4l-1.75,1.85-.92.48c-.23.14-.43.3-.62.48l-1.34,1.13c0,.32-.1.56-.31.72h-.55l-.27.14c-.16.43-.63.86-1.41,1.27l-.48.34c-.16.14-.31.21-.45.21l-.96-.14-.65.14c-.18,0-.43-.09-.74-.27-.31-.18-.62-.33-.94-.43s-.73-.52-1.22-1.27c-.49-.74-.76-1.23-.81-1.45,0-.09-.05-.25-.15-.46-.1-.22-.15-.35-.15-.39s.1-.27.31-.68v-.07c0-.07-.06-.23-.19-.48-.13-.25-.19-.56-.19-.92,0-.21-.07-.47-.21-.79.18-.18.27-.32.27-.41s-.03-.22-.1-.39-.1-.3-.1-.39l.21-1.68-.14-.86.07-.82c0-.48-.2-.72-.61-.72-.18,0-.41.12-.68.38l-.24.07c-.61.3-1.05.54-1.3.74-.25.19-.51.29-.78.29-.14.14-.4.26-.78.38l-.27.21c-.09.09-.27.23-.55.41,0,.07-.43.45-1.28,1.15-.85.7-1.62,1.35-2.3,1.97-.68.62-1.18.95-1.48,1.01-.31.06-.46.35-.46.87,0,.09-.2.27-.61.55-.05,0-.28.25-.72.75-.36-.27-.57-.41-.61-.41-.3,0-.51.38-.65,1.13-.14.3-.5.48-1.1.55-.05.02-.13.19-.24.51l-.14.14h-.34s-.21.13-.48.39c-.27.26-.51.43-.72.5-.3.62-.55.92-.75.92-.09,0-.22-.04-.39-.14-.17-.09-.38-.17-.63-.24-.25-.07-.53-.35-.84-.84-.31-.49-.46-.91-.46-1.25,0-2.53.49-3.91,1.47-4.14l.07-.14v-.27c0-.3.13-.51.39-.63.26-.13.53-.38.8-.75.27-.38.46-.59.55-.63h.44c.09,0,.14-.24.14-.72,0-.14.06-.26.17-.38.11-.11.18-.28.21-.5.02-.22.19-.57.5-1.06.31-.49.46-.78.46-.87l-.07-.14c-.57.53-.98.81-1.23.86-.25.05-.59.38-1.03.99l-.55-.1c-.96.71-1.55,1.11-1.78,1.2-.23.09-.48.35-.75.79,0,.14-.08.23-.24.27s-.46.23-.89.55h-.21c-.57,0-.86-.41-.86-1.23l.72-1.95c.2-.62.69-1.13,1.45-1.56s1.41-.83,1.93-1.21c.52-.39,1.05-.59,1.57-.62l.24-.34c.77-.3,1.3-.76,1.57-1.4.27-.64.65-.96,1.13-.96,1.25,0,2.21.46,2.87,1.39.66.92.99,1.66.99,2.21l.07.92c0,.32-.07.76-.2,1.33-.27.41-.41.72-.41.92,0,.18.11.27.34.27.14,0,.32-.1.55-.29.23-.19.48-.37.77-.53.28-.16.45-.3.5-.41.23-.55.63-.92,1.2-1.13.57-.21.92-.38,1.06-.51l.34-.27.27-.51c.61-.27,1.02-.53,1.23-.75.21-.23.48-.38.82-.45s.73-.27,1.16-.62l.51-.14.48-.27s.18-.1.41-.17c.23-.07.56-.19,1.01-.36.44-.17.75-.26.91-.26,1.16,0,2.08.47,2.75,1.4s1.01,1.69,1.01,2.26l-.07.62.14.92v.14l-.27,1.88.07.65c0,1.07-.23,1.81-.68,2.22-.11.05-.17.16-.17.34v.31l.68,1.44c.21.5.37.75.48.75l1.1-.31c.32-.09.58-.33.79-.72.18-.09.5-.36.96-.82.14-.36.35-.55.65-.55Z"/>
      <path class="cls-3" d="M814.37,529.67l.58-.48.68.07c.39,0,.72-.1.99-.31s.5-.32.67-.34c.17-.02.38-.14.62-.34.24-.21.59-.35,1.04-.43.46-.08.79-.22.99-.43.21-.21.44-.34.7-.39s.56-.15.91-.29l3.11-.96s.17.05.38.14h.14c.27,0,.54-.11.8-.33.26-.22.58-.33.94-.33.23,0,.67-.14,1.33-.41l.21.21c.36-.41.67-.62.92-.62h.21s.25.05.62.14c.57-.18,1.04-.27,1.4-.27l.79-.07s.11.02.21.07c.18-.21.43-.33.75-.38h.38l1.4-.34.41.14c.27-.23.7-.34,1.27-.34h.34l.34.07s.26-.07.63-.21c.38-.14,1.29-.21,2.75-.21l.89.14c.57-.23.88-.34.92-.34l.96.21.38-.14h.14s.16.05.34.14h.07l2.46-.34s.14.02.27.07c.18-.16.32-.24.41-.24l.65.17c.18,0,.5-.12.96-.38l.21.21,2.33-.27.86.07.75-.14c.75,0,1.32.2,1.69.6.38.4.56.8.56,1.21l.14,1.06-.21.58-.07.68c-.11.27-.29.46-.51.55,0,.05-.1.1-.31.15-.21.06-.41.15-.62.29-.21.14-.88.21-2.02.21-.57,0-.93-.18-1.09-.53s-.33-.55-.51-.6l-1.47-.62s-.18-.07-.41-.07h-.27l-1.4.14s-.17-.02-.38-.07c-.3.14-.46.21-.48.21l-2.53-.14-1.03.07-.72-.14c-.09,0-.25.03-.48.1-.23.07-.71.13-1.44.17-.73.05-1.09.27-1.09.68,0,.25.1.53.29.82.19.3.29.54.29.72-.34.48-.51.79-.51.92-.09.07-.25.22-.48.45-.23.23-.65.59-1.27,1.08-.62.49-1.04.94-1.27,1.35-.23.41-.5.62-.82.62-.41.39-.7.74-.85,1.06l-.27.27s-.07.15-.07.31c0,.14-.07.27-.21.41l-.31.82c-.16.07-.63.66-1.4,1.78l-.41.21-.41.48h-.48c-.21,0-.31.14-.31.41l.14.99c-.34.3-.62.7-.82,1.2l-.41.68c-.48.48-.72.74-.72.79,0,.11-.23.61-.68,1.47l-.07.34c0,.39-.8,1.51-2.39,3.35-.23.43-.37,1.09-.41,1.99-.68,1.35-1.15,2-1.4,1.95-.05.87-.19,1.57-.43,2.12-.24.55-.55,1.35-.92,2.41-.38,1.06-.77,1.82-1.18,2.28l-.14.27c-.09.18-.21.37-.34.55-.05.62-.26,1.6-.65,2.94l-.21,1.47-.68,1.92c-.07.14-.1.27-.1.41,0,.09.07.27.22.53.15.26.22.51.22.74,0,.32-.06.58-.17.77-.11.19-.17.45-.17.77,0,.71-.38,1.17-1.13,1.4h-.27l-.72.07c-.96,0-1.83-.46-2.6-1.37-.78-.91-1.16-2.17-1.16-3.76,0-.09.07-.44.21-1.04s.22-1,.24-1.18c.02-.18.08-.37.17-.56.09-.19.14-.47.14-.84,0-1.12.28-2.09.84-2.91.56-.82.93-1.41,1.11-1.78.05-.16.12-.26.24-.31-.07-.18-.1-.41-.1-.68,0-.66.29-1.2.86-1.61.05-.18.12-.39.24-.63.11-.24.35-.82.72-1.75.36-.92.84-1.47,1.44-1.63-.02-.04.11-.23.41-.55l-.14-1.2c0-.18.21-.49.62-.92l.58-.96c.09-.39.39-.74.89-1.06.14-.23.28-.36.44-.41.02-.09.12-.38.29-.86.17-.48.54-1.08,1.1-1.8.56-.72,1.09-1.47,1.61-2.24.51-.78.98-1.17,1.4-1.2.42-.02.66-.26.7-.72l.21-1.27c.66-.57,1.06-.97,1.2-1.2l.48-.55c.09-.32.21-.53.36-.63s.34-.31.56-.63c.23-.32.51-.6.86-.86.3-.94.97-1.75,2.02-2.43l.55-.58c.39-.55.71-.92.96-1.11.25-.19.44-.45.56-.77.12-.32.37-.56.74-.72.36-.16.55-.34.55-.55,0-.09-.09-.14-.27-.14s-.49.07-.92.21h-.27l-.62.14h-.21l-.58-.14c-.41.14-.73.21-.96.21-.05.05-.19.15-.44.31h-.75l-.41.41-.31.07-.89-.14c-.27,0-.6.14-.99.41,0,.05-.37.12-1.11.24-.74.11-1.44.33-2.1.63-.66.31-1.06.46-1.2.46l-.62-.14h-.07c-.3,0-.57.15-.82.45s-.62.48-1.09.55h-.41c-.34,0-.8.14-1.39.41-.58.27-.9.41-.94.41l-.62-.07c-.27.18-.51.31-.7.38-.19.07-.38.18-.56.33-.18.15-.37.26-.55.33-.18.07-.39.19-.63.38-.24.18-.43.27-.56.27h-.14l-.41-.07c-.16,0-.37.14-.62.43-.25.29-.49.46-.7.53-.22.07-.42.18-.62.33-.19.15-.39.23-.6.26-.11.11-.27.37-.48.75-.21.39-.47.72-.79,1.01-.32.29-.53.51-.63.67-.1.16-.2.24-.29.24-1.12,0-1.68-.7-1.68-2.09l.68-1.47c.48-1.16,1.21-1.87,2.19-2.12.25,0,.9-.25,1.95-.75l1.33-.58Z"/>
      <path class="cls-3" d="M840.26,552.19l.51-.14.21-.44c1.12-.66,1.92-1.29,2.4-1.88.05-.09.15-.18.31-.27.16-.09.33-.25.51-.48.84-.84,1.85-1.27,3.01-1.27,1.37,0,2.1.83,2.19,2.5l.21.51c.18.32.44.97.77,1.95.33.98.5,1.59.5,1.81,0,.62-.19,1.23-.58,1.85-.32.16-1.08,1.02-2.29,2.57l-.34.24c-.18.41-.42.82-.72,1.23-.46.16-.68.33-.68.51v.62s-.05.14-.15.27c-.1.14-.25.4-.43.79l-.27.41c-.09.09-.18.28-.27.56-.09.29-.22.54-.39.77-.17.23-.26.41-.26.55,0,.34.45.51,1.33.51.05,0,.22-.07.51-.21l.48.14s.16-.07.34-.22.46-.27.84-.36c.38-.09.71-.23.99-.41.29-.18.63-.34,1.03-.48s.78-.36,1.15-.67c.36-.31.72-.53,1.08-.67.35-.14.68-.35.99-.63.31-.29.66-.55,1.04-.8.39-.25,1-.8,1.85-1.64.55-.43.92-.67,1.13-.72.05,0,.24-.3.6-.91.35-.6.76-.91,1.22-.91s.72.23.72.68c0,.25-.11.49-.34.72v.21l.07.55c.05.07.07.17.07.31,0,.09-.09.23-.26.41-.17.18-.29.42-.36.7-.07.29-.28.47-.65.56-.14.5-.31.79-.53.86s-.52.3-.91.68c-.39.39-.94.84-1.64,1.37-.71.53-1.19.93-1.45,1.21-.26.29-.44.43-.53.43-.05,0-.14-.04-.27-.14-.14-.09-.23-.14-.27-.14-.14,0-.23.16-.27.48l-.14.34c-.3.18-.47.27-.51.27l-.21-.07h-.14c-.27,0-.41.1-.41.31l.21.34v.07c0,.32-.18.48-.55.48-.25,0-.98.42-2.19,1.27l-.99.21-.82.44c-.27-.16-.44-.24-.51-.24l-.55.17-.99.07s-.44-.23-1.25-.68c-.81-.46-1.29-.91-1.45-1.37-.16-.46-.37-.92-.62-1.39-.25-.47-.38-.79-.38-.98,0-1.09.09-1.88.27-2.34s.3-.82.34-1.04c.05-.23.18-.47.39-.74.22-.26.39-.69.53-1.28.66-1.32,1.12-2.13,1.37-2.43.25-.3.44-.66.58-1.09l.44-.62s.11-.22.21-.53c.09-.31.21-.48.34-.53.18-.32.27-.52.27-.62,0-.66-.3-.99-.89-.99-.11,0-.24.12-.38.36-.14.24-.45.47-.94.7-.49.23-.79.4-.91.51-.11.12-.36.26-.74.43-.38.17-.7.44-.98.8l-.58.27c-.18.43-.34.67-.48.72-.14.05-.56.16-1.27.34-.05.02-.16.16-.34.41-.18.25-.44.38-.79.38-.27.27-.55.59-.82.96-.09,0-.33.09-.72.27l-.69.17c-.18.14-.38.35-.6.65-.22.3-.62.44-1.22.44-.34,0-.51-.27-.51-.82,0-1.12.39-2.01,1.18-2.67.79-.66,1.36-1.02,1.73-1.06.37-.04.59-.18.69-.41.09-.23.31-.42.67-.57.35-.15.76-.48,1.23-.99.47-.51.98-.86,1.52-1.04l.41-.48Z"/>
      <path class="cls-3" d="M884.93,559.96l.55-.48c.34,0,.55-.15.61-.46.07-.31.31-.55.73-.74s.81-.55,1.18-1.11c.36-.56.74-.84,1.13-.84.14,0,.3.11.48.34.18.23.27.41.27.55,0,.75-.23,1.53-.68,2.33l-.14.96-.24.45c-.34.18-.56.38-.67.58s-.37.46-.8.75l-.34.48c-.5.16-.84.42-1.01.79-.17.37-.41.57-.72.62-.31.05-.64.27-1.01.68-.23.11-.5.22-.82.31l-.07.34c-.23.23-.59.41-1.08.55s-.85.27-1.09.39c-.24.12-.4.19-.5.19-.43,0-.83-.09-1.2-.26-.36-.17-.74-.28-1.13-.33-.14-.14-.22-.29-.24-.45-.02-.16-.14-.37-.34-.63-.21-.26-.31-.62-.31-1.08l.14-.65c0-.09-.06-.21-.17-.34-.11-.14-.17-.25-.17-.34s.02-.16.07-.21c.05-.05.07-.11.07-.21,0-.11-.02-.24-.07-.38-.05-.14-.07-.25-.07-.34l.21-1.68c0-.14-.05-.21-.14-.21s-.26.11-.5.34c-.24.23-.52.34-.84.34-.18.14-.33.42-.45.86-.18.23-.41.43-.68.62l-.14.21c-.05.16-.22.29-.51.39-.3.1-.5.23-.62.39l-.34.34-.65-.07s-.17.25-.38.6c-.21.35-.47.64-.79.87l-2.6,2.12c-.27.18-.67.41-1.2.68l-.21.21c-1.83,1.21-3.11,1.81-3.87,1.81-.62,0-1.34-.17-2.16-.51-.82-.34-1.27-.75-1.33-1.23l-.34-1.4c-.21-.32-.31-.76-.31-1.33,0-.27.02-.46.07-.55v-.21l-.07-1.13c0-.27.22-.41.65-.41l-.07-.92c0-.09.2-.45.6-1.08.4-.63.67-.99.8-1.08l.34-.45c-.02-.27.14-.56.48-.87.34-.31.62-.62.82-.94.21-.32.59-.67,1.17-1.06l1.03-1.03c.8-.8,1.67-1.44,2.6-1.92.14-.05.42-.27.84-.68.42-.41.9-.71,1.44-.91.54-.19,1.06-.44,1.58-.74.51-.3.92-.45,1.22-.45h.27c.09,0,.7-.29,1.82-.86h.21c.09,0,.31.09.65.27h.07l.55-.27c.09-.05.21-.07.34-.07,1.42,0,2.19.98,2.33,2.94.05.41.16.62.34.62.23,0,.55-.42.98-1.25.42-.83,1.32-1.25,2.69-1.25.98,0,1.47.63,1.47,1.88,0,1.48-.66,2.89-1.98,4.21-.09.18-.16.39-.21.62l-.48,1.4v.07c0,.14-.1.33-.29.56-.19.24-.29.45-.29.63l.07.86-.14.96c0,.43.08.72.24.86.73-.18,1.26-.48,1.59-.91.33-.42.56-.66.7-.7l.34-.14c.2-.34.44-.63.72-.86ZM873.57,559.96c.09-.5.37-.88.84-1.15.47-.26.75-.53.84-.8.43-.32,1.06-.89,1.87-1.71s1.22-1.32,1.22-1.51c0-.07-.05-.1-.14-.1h-.07l-.27.17-.62-.07-.65.07-.48-.24-.45.07-.68-.14c-.37,0-.68.07-.94.22-.26.15-.76.31-1.51.5s-1.41.5-2,.94c-.59.45-1.03.67-1.3.67-.16.34-.7.83-1.61,1.47-.55.18-.9.58-1.06,1.2-.59.48-.89.75-.89.82l-.24.58c-.18.16-.41.29-.68.39-.27.1-.43.34-.48.72-.05.38-.2.72-.46,1.03-.26.31-.39.55-.39.74,0,1.12.22,1.68.65,1.68.18,0,.56-.12,1.15-.36.58-.24.92-.4,1.01-.5.09-.09.27-.18.55-.27l.65-.34c.09-.09.19-.15.31-.17s.23-.1.34-.22c.11-.12.32-.26.62-.41.3-.15.52-.35.68-.6.39-.23,1.02-.58,1.88-1.06l.72-.55c.5-.23.81-.42.92-.58.11-.16.34-.32.68-.48Z"/>
      <path class="cls-3" d="M890.36,565.5l-.27-1.75c0-.14.07-.35.21-.65.14,0,.25-.05.34-.14l-.21-.62c0-.8.22-1.49.67-2.07.45-.58.69-.98.74-1.18.05-.21.37-.87.98-2,.6-1.13,1.06-1.85,1.35-2.17l.21-.44.27-.07c.52-.84,1.27-1.61,2.23-2.29.32-.5.71-.91,1.16-1.23.46-.32.77-.55.93-.68s.4-.23.72-.27l.14-.07c.66-.66,1.23-.99,1.71-.99.16-.16.48-.34.96-.55h.38c.14,0,.27-.04.41-.14.14-.09.27-.14.41-.14.09,0,.33.09.72.27.37-.36.66-.55.89-.55.48,0,.96.18,1.46.55.49.37.81.81.94,1.33.14.53.25.83.34.92.09.09.18.21.27.34.18,0,.42-.42.72-1.27l.41-.55c.62-.8,1.04-1.73,1.27-2.81.05-.05.11-.23.21-.56.09-.33.33-.9.72-1.69.67-.96,1.14-1.94,1.41-2.94l.41-.62c.28-.18.42-.38.45-.6s.09-.42.21-.6c.11-.18.25-.41.39-.67.15-.26.27-.44.36-.53.09-.09.23-.41.41-.94.18-.54.4-.84.67-.91.26-.07.53-.19.8-.38l.07-.24-.14-.48c0-.27.3-.75.91-1.44s1.04-1.25,1.3-1.69c.26-.44.71-1.13,1.33-2.05.63-.92,1.08-1.49,1.35-1.69l.79-.82c.36-.52.88-.79,1.54-.79.5,0,1.03.27,1.57.8.55.54.82,1.07.82,1.59,0,.18-.13.6-.38,1.27l-.07.41c0,.37-.13.8-.38,1.3-.25.5-.4.89-.44,1.16l-1.92,4.69c-.23.09-.37.16-.41.21-.59,1.3-1.06,2.01-1.4,2.12v.68c0,.25-.16.43-.48.55l-.14.07c-.21.87-.47,1.5-.79,1.88-.32.39-.55.78-.7,1.18s-.38.62-.7.67c-.32.05-.48.49-.48,1.33-.09.46-.32.68-.68.68-.34,0-.56.3-.65.89-.09.59-.54.91-1.33.96-.23.14-.37.3-.41.48l.27.86c0,.14-.42.67-1.27,1.61l-.27.89c-.43.16-.79,1.33-1.06,3.52l-.41,2.36.07.92-.14.48.41,1.4-.07.79c0,.37.14.55.41.55.14,0,.44-.21.92-.62l.48-.21c1.43-.73,2.32-1.44,2.66-2.12.09-.09.26-.18.5-.27.24-.09.42-.22.53-.38.11-.16.2-.27.27-.34,1.39-.91,2.29-1.71,2.7-2.4.41-.68.83-1.09,1.26-1.23l.27-.27c.27-.23.5-.34.68-.34.39,0,.58.11.58.34l-.27.96c.23.62.34.97.34,1.06,0,.8-.35,1.29-1.06,1.47-.3.3-.53.64-.7,1.03-.17.39-.54.63-1.11.72-.39.55-.74.91-1.06,1.08s-.48.35-.48.53v.31c-.18.27-.34.46-.48.55l-.65-.14c-.09.27-.3.65-.62,1.13-.11-.09-.22-.14-.31-.14-.32,0-.58.19-.79.58-.21.39-.35.58-.44.58h-.79c-.11.07-.3.22-.55.45-.25.23-.67.34-1.27.34l-1.06.21c-1,0-1.93-.33-2.77-.98-.85-.65-1.3-1.24-1.35-1.78-.06-.54-.25-1.18-.56-1.93l-.07-1.4c-.25-1.46-.54-2.19-.86-2.19l-.07.44-.27.14c-.14.71-.37,1.06-.69,1.06-.14.07-.29.18-.45.34l-.21.14c-.09.05-.22.24-.39.58s-.65.82-1.42,1.44c-.32.84-.56,1.27-.72,1.27l-.41-.27h-.07c-.18,0-.33.27-.45.8-.11.54-.34.8-.69.8-.09,0-.18.15-.26.46-.08.31-.28.5-.6.58-.32.08-.61.39-.86.94-.25.55-.42.82-.51.82-.05,0-.11-.02-.21-.07l-.58.14c-.11.16-.27.42-.48.79-.21.07-.39.16-.55.27-.71.68-1.65,1.03-2.81,1.03-.82,0-1.47-.18-1.95-.53-.48-.35-.77-.66-.86-.91-.09-.25-.26-.56-.51-.94-.25-.38-.41-.84-.48-1.39ZM904.03,557.74l.24-.45c.39-.14.64-.48.75-1.03.18-.14.65-.73,1.4-1.78.75-1.05,1.13-1.63,1.13-1.75-.23-.23-.49-.34-.79-.34-.05,0-.18.05-.41.14-.23.09-.46.16-.7.21-.24.05-.5.14-.77.27l-.86-.14c-.25,0-.81.33-1.68.99l-.79-.14c-.14,0-.37.3-.68.89l-1.75,1.4h-.21c-.32,0-.54.29-.65.86-.39.5-.75.85-1.1,1.04-.34.19-.58.47-.72.84v.45c-.64.71-.96,1.24-.96,1.61-.48.46-.79.95-.94,1.47-.15.53-.33.97-.53,1.33.09.32.16.71.21,1.18.05.47.27.7.69.7.66,0,1.39-.4,2.19-1.2.05-.04.24-.17.58-.38s.82-.61,1.42-1.21c.6-.6.94-.92,1.01-.94.23-.23.36-.34.41-.34l.27-.27c0-.09.1-.19.29-.31s.45-.35.77-.7.57-.57.74-.63c.17-.07.29-.17.36-.29.07-.12.18-.25.34-.36.16-.11.24-.24.24-.38l.07-.41.41-.34ZM915.91,543.84l-.34.99c.3-.05.56-.35.79-.92.68-.98,1.15-1.59,1.4-1.81.3,0,.52-.19.67-.56.15-.38.42-.75.8-1.11,0-.16.17-.47.51-.92.34-.46.56-.78.67-.98.1-.19.31-.45.63-.77.32-.32.62-.87.91-1.64.29-.78.53-1.24.74-1.4.21-.16.31-.48.31-.96,0-.66-.05-.99-.14-.99-.21,0-.36.13-.46.39-.1.26-.33.6-.67,1.01l-1.16,1.95c-.46.78-.76,1.39-.91,1.85s-.32.72-.51.8c-.19.08-.43.3-.7.67l-.48.48c-.11.27-.21.61-.27.99l-.31.27v.65c0,.3-.17.56-.51.8-.34.24-.51.39-.51.46l-.45.75Z"/>
      <path class="cls-3" d="M920.41,556.95l.55-.48h.21c.16,0,.4-.17.72-.51l.34-.14c.46-.68.86-1.08,1.2-1.2l.55-.41c.09-.09.22-.17.39-.24.17-.07.45-.29.82-.67.38-.38.68-.56.91-.56s.41.02.55.07c.14-.27.41-.54.82-.8.41-.26.74-.58.99-.94l.45-.21c.37-.18.69-.42.98-.7.29-.29.66-.43,1.11-.43.66,0,1.35.34,2.07,1.01.72.67,1.08,1.32,1.08,1.93l-.58,2.67c-.39,1.96-.82,2.99-1.3,3.08l-.14.72c-.32.23-.48.41-.48.55l.21.82c0,.12-.13.29-.38.51-.05,0-.07.07-.07.21v1.4c0,.25-.16.46-.48.62.05.05.11.09.21.14.14-.14.44-.21.92-.21l.55.07.75-.75c.16-.04.38-.15.67-.33s.77-.39,1.45-.67l4.48-3.42c.61-.62,1.08-.92,1.4-.92.34,0,.51.22.51.65,0,.5-.1.92-.29,1.25-.19.33-.37.73-.53,1.2-.16.47-.35.79-.56.97-.22.18-.39.38-.53.6-.14.22-.51.53-1.11.94-.6.41-1.12.83-1.54,1.25s-.77.72-1.04.91l-1.47,1.06-.21.34s-.26.14-.63.29-.71.34-1.01.56l-.62.34c-.14.09-.36.15-.67.17-.31.02-.58.15-.8.39-.23.24-.41.36-.55.36l-.51-.07-.68.21c-.39,0-.86-.23-1.42-.7s-.84-.96-.84-1.49v-.21l.07-.48c0-.09-.07-.33-.21-.7-.14-.38-.21-.59-.21-.63l.07-.48-.07-.21c0-.62.05-1,.14-1.16.09-.16.16-.38.21-.67.05-.29.09-.52.14-.7l.17-.86c.09-.27.21-.46.34-.55.05-.18.14-.49.27-.92l.14-.62.34-.48c.18-.18.29-.43.33-.74.03-.31.15-.63.36-.97.21-.34.31-.55.31-.62,0-.27-.14-.41-.41-.41-.09,0-.38.18-.86.55l-.62-.21s-.17.11-.38.34c0,.09-.1.16-.31.21-.21.05-.4.22-.58.51l-.27.07-.44-.21h-.14c-.23,0-.37.25-.41.75-.25.37-.58.6-.99.72l-.75.21c-.25.09-.43.3-.55.62-.11.32-.34.61-.68.87-.34.26-.57.39-.68.39-.64,0-.96-.35-.96-1.06l.27-1.61-.07-.21ZM935.19,539.84l-.21-1.33v-.21c0-1.07.36-1.67,1.1-1.78.16-.02.64-.17,1.44-.45.41.09.84.45,1.28,1.08.44.63.67,1.18.67,1.66,0,.05-.03.15-.1.31-.07.16-.11.46-.14.91-.02.45-.25.83-.67,1.16-.42.33-.87.5-1.35.5-.32,0-.72-.22-1.21-.67-.49-.44-.76-.84-.8-1.18Z"/>
      <path class="cls-3" d="M951.6,537.89l.48-.14.34-.34h.07l.31.14h.07c.55,0,1.03-.11,1.46-.33.43-.22.78-.37,1.07-.46.29-.09.47-.16.54-.21.07-.05.13-.07.17-.07l.55.07c.18,0,.43-.33.74-.98.31-.65.66-1.12,1.04-1.42s.78-.86,1.16-1.68c.09-.11.19-.29.31-.53.11-.24.21-.36.27-.36.34,0,.62-.22.82-.65.68-.8,1.24-1.2,1.68-1.2.57,0,.97.55,1.2,1.64l.34,1.3s-.06.19-.17.5c-.11.31-.17.62-.15.92.01.31,0,.51-.03.62-.03.1-.05.22-.05.36,0,.18.19.27.58.27.14,0,.39-.09.75-.27l.21-.07c.23.14.42.21.58.21.05,0,.37-.11.98-.34.6-.23.99-.35,1.15-.38.16-.02.43-.11.82-.27h.41l.27.1c.09,0,.28-.1.56-.29.29-.19.83-.31,1.63-.36l.48-.21h.14c.75,0,1.13.33,1.13.99,0,.14-.11.38-.33.72-.22.34-.39.73-.53,1.16l-1.57,1.98c-.53.68-1.05,1.03-1.57,1.03-.09,0-.38-.31-.86-.92,0-.04-.05-.07-.14-.07-.23,0-.47.05-.72.14-.25.09-.46.14-.62.14-.07,0-.67.17-1.81.51l-.82.14c-.09,0-.31.05-.65.14l-1.75.34c-.59.3-1.06.86-1.4,1.68,0,.05-.11.15-.34.31l-1.54,2.81c-.5.14-.83.43-.99.89l-.14.21c-.25.05-.48.19-.69.43s-.4.43-.58.56l-.62.92c-.25.32-.5.67-.75,1.04-.25.38-.43.78-.55,1.2-.11.42-.21.67-.27.74s-.1.19-.1.38l-.1.27c-.27.27-.41.58-.41.92l.14.55c-.32,1.1-.48,1.68-.48,1.75,0,.05.02.17.07.38v.21c0,.5-.18,1.13-.55,1.88l.07.55-.21,1.54c0,.21.07.58.21,1.13-.09.09-.14.16-.14.21,0,.64.34,1.34,1.01,2.1.67.77,1.01,1.96,1.01,3.58,0,.14-.03.34-.1.6-.07.26-.11.55-.14.86-.02.31-.2.61-.53.91s-.61.44-.84.44c-1.21,0-2.12-.88-2.71-2.63-.59-1.76-.89-2.89-.89-3.39l.07-1.33-.21-.68.21-3.01-.14-.72.79-2.94v-1.06s.16-.23.48-.55c0-.05-.05-.07-.14-.07-.14,0-.32.14-.55.41-.23.27-.51.54-.86.79l-.27.48s-.14-.09-.27-.14c-.11.05-.49.58-1.13,1.61-.48.07-.86.34-1.13.82s-.65.72-1.13.72l-.14.07c-.09.66-.41.99-.96.99l-.14.07c-.34.78-.7,1.15-1.06,1.13-.23.68-.79,1.15-1.68,1.4-.14.27-.34.48-.6.62-.26.14-.45.26-.57.38-.11.11-.22.17-.31.17-.3,0-.45-.32-.45-.96,0-.18.07-.38.22-.6.15-.22.22-.37.22-.46,0-.05-.11-.18-.34-.41,0-.71.18-1.15.55-1.33.37-.18.64-.44.82-.79.11-.27.34-.47.69-.58.34-.11.51-.26.51-.45,0-.16.3-.48.89-.96.59-.48,1.03-.9,1.3-1.25s.5-.53.69-.53l.14-.14c.05-.57.26-.86.65-.86l.34-.21.07-.27.21-.14h.27l.17-.14c.05-.57.31-1.01.8-1.33.49-.32,1.39-1.21,2.69-2.69s2.03-2.41,2.19-2.82c.16-.41.45-.96.87-1.66.42-.7.66-1.35.7-1.97-.05-.09-.11-.18-.21-.27l-1.47.72c0-.07-.23-.17-.68-.31-.34.21-.59.41-.75.62-.16.21-.29.31-.38.31l-.48-.07-1.51.17c-1.35.11-2.36.39-3.05.82l-1.4.41h-.31c-.18,0-.46.12-.82.34l-.79-.07c-.73.39-1.27.58-1.61.58-.05,0-.18-.02-.41-.07l-3.49.96c-.27.09-.89.56-1.85,1.4l-.27.07c-.23,0-.5-.26-.8-.77s-.46-.98-.46-1.39c0-2.26,1.94-3.57,5.82-3.94l1.4-.55h.07l.38.14h.14c.14,0,.35-.09.65-.26.3-.17.96-.38,1.99-.63l1.4-.38.44.07c.23,0,.48-.09.77-.27s.72-.31,1.3-.39c.58-.08.99-.17,1.21-.26l.55-.14c.09,0,.28-.08.56-.24.29-.16.66-.24,1.11-.24.07,0,.24.05.51.14Z"/>
      <path class="cls-3" d="M960.89,556.95l.55-.48h.21c.16,0,.4-.17.72-.51l.34-.14c.46-.68.86-1.08,1.2-1.2l.55-.41c.09-.09.22-.17.39-.24.17-.07.45-.29.82-.67.38-.38.68-.56.91-.56s.41.02.55.07c.14-.27.41-.54.82-.8.41-.26.74-.58.99-.94l.45-.21c.37-.18.69-.42.98-.7.29-.29.66-.43,1.11-.43.66,0,1.35.34,2.07,1.01.72.67,1.08,1.32,1.08,1.93l-.58,2.67c-.39,1.96-.82,2.99-1.3,3.08l-.14.72c-.32.23-.48.41-.48.55l.21.82c0,.12-.13.29-.38.51-.05,0-.07.07-.07.21v1.4c0,.25-.16.46-.48.62.05.05.11.09.21.14.14-.14.44-.21.92-.21l.55.07.75-.75c.16-.04.38-.15.67-.33s.77-.39,1.45-.67l4.48-3.42c.61-.62,1.08-.92,1.4-.92.34,0,.51.22.51.65,0,.5-.1.92-.29,1.25-.19.33-.37.73-.53,1.2-.16.47-.35.79-.56.97-.22.18-.39.38-.53.6-.14.22-.51.53-1.11.94-.6.41-1.12.83-1.54,1.25s-.77.72-1.04.91l-1.47,1.06-.21.34s-.26.14-.63.29-.71.34-1.01.56l-.62.34c-.14.09-.36.15-.67.17-.31.02-.58.15-.8.39-.23.24-.41.36-.55.36l-.51-.07-.68.21c-.39,0-.86-.23-1.42-.7s-.84-.96-.84-1.49v-.21l.07-.48c0-.09-.07-.33-.21-.7-.14-.38-.21-.59-.21-.63l.07-.48-.07-.21c0-.62.05-1,.14-1.16.09-.16.16-.38.21-.67.05-.29.09-.52.14-.7l.17-.86c.09-.27.21-.46.34-.55.05-.18.14-.49.27-.92l.14-.62.34-.48c.18-.18.29-.43.33-.74.03-.31.15-.63.36-.97.21-.34.31-.55.31-.62,0-.27-.14-.41-.41-.41-.09,0-.38.18-.86.55l-.62-.21s-.17.11-.38.34c0,.09-.1.16-.31.21-.21.05-.4.22-.58.51l-.27.07-.44-.21h-.14c-.23,0-.37.25-.41.75-.25.37-.58.6-.99.72l-.75.21c-.25.09-.43.3-.55.62-.11.32-.34.61-.68.87-.34.26-.57.39-.68.39-.64,0-.96-.35-.96-1.06l.27-1.61-.07-.21ZM975.68,539.84l-.21-1.33v-.21c0-1.07.36-1.67,1.1-1.78.16-.02.64-.17,1.44-.45.41.09.84.45,1.28,1.08.44.63.67,1.18.67,1.66,0,.05-.03.15-.1.31-.07.16-.11.46-.14.91-.02.45-.25.83-.67,1.16-.42.33-.87.5-1.35.5-.32,0-.72-.22-1.21-.67-.49-.44-.76-.84-.8-1.18Z"/>
      <path class="cls-3" d="M1000.01,565.23l-1.61,1.4c-.09-.09-.18-.14-.27-.14-.23,0-.51.21-.84.62-.33.41-.57.62-.7.62l-.34-.07c-.57.43-.98.68-1.23.75-.25.07-.55.19-.91.38-.35.18-.67.29-.96.31-.29.02-.52.12-.7.29-.18.17-.63.26-1.33.26l-.55-.07c-.3.14-.49.21-.58.21-.18,0-.38-.1-.58-.29-.21-.19-.43-.3-.67-.33-.24-.02-.48-.18-.74-.48-.25-.3-.48-.5-.7-.62-.22-.11-.39-.27-.53-.48l-.48-.41c-.39-.27-.77-.78-1.13-1.51-.37-.73-.55-1.3-.55-1.71v-.14l.07-.65-.07-.75c.09-.09.21-.29.34-.58v-1.09l.82-2.74c.05-.11-.05-.26-.27-.44-.23.34-.46.55-.69.62-.23.07-.38.23-.46.48-.08.25-.21.38-.4.38l-.41-.14s-.15.28-.31.7-.44.63-.83.63c-.41,0-.62-.16-.62-.48l.07-.62-.21-.86c0-.18.18-.54.55-1.08s.7-.84,1.01-.92c.31-.08.57-.3.79-.65.22-.35.69-.78,1.42-1.28.41-.09.77-.39,1.06-.89.32-.25.74-.46,1.25-.62.51-.16.9-.39,1.17-.7s1.04-.79,2.33-1.44,2.23-.98,2.83-.98c.18,0,.43-.05.75-.15.32-.1.62-.19.89-.27.27-.08.56-.21.86-.38.3-.17.54-.26.72-.26l.99.34c.73.21,1.18.35,1.34.45.05.05.28.14.7.29.42.15.86.35,1.3.6.45.25.67.72.67,1.4-.39.57-.58.88-.58.92,0,.09.26.23.79.41.18.34.46.79.82,1.33l.38,1.2.07,2.81-.07.27c-.25.23-.38.38-.38.45l.1.68-.27.96c-.07.3-.18.49-.34.58-.16.09-.26.21-.31.34l-.21.27c-.05.07-.14.27-.29.6s-.31.59-.5.77c-.18.18-.3.4-.34.65s-.16.43-.34.55c-.18.11-.31.23-.39.36s-.21.23-.39.33ZM989.38,566.12l.14.79.07.07h.55l.17.07c.46.09.8.14,1.02.14.71,0,1.27-.18,1.69-.53.42-.35.76-.53,1.01-.53s.46-.17.63-.51c.17-.34.28-.51.32-.51h.48l.14-.07c0-.52.23-.9.7-1.13.47-.23.8-.53.99-.91.19-.38.42-.66.67-.86.25-.19.42-.45.51-.77l.27-.41c.09-.09.14-.26.14-.51l.65-1.23c.14-.57.21-1.02.21-1.33,0-.48-.24-.86-.73-1.13-.49-.27-.73-.81-.73-1.61,0-.52.27-1.01.8-1.45s.8-.71.8-.8c0-.14-.07-.21-.21-.21-.07,0-.33.09-.79.27-.16.32-.97.74-2.42,1.27-.48-.23-.74-.34-.79-.34-.14,0-.27.14-.41.41-.14.27-.27.47-.41.58h-.44s-.19.15-.44.45c-.25.3-.57.44-.96.44l-.41.41c.02.37-.2.74-.68,1.13l-.38.45c-.23.27-.52.59-.89.96l-.62,1.54c-.25.59-.38,1.04-.38,1.33-.07.14-.22.28-.46.43-.24.15-.36.34-.36.56,0,.05.08.16.24.34.16.18.24.32.24.41l-.14.45-.14,1.27.34,1.1Z"/>
      <path class="cls-3" d="M1037.61,562.08h.14l.34.14s.09-.02.14-.07c0-.39.18-.72.55-.99.11-.43.37-.76.77-.99.4-.23,1.03-.6,1.9-1.13l.86-.75.41-.21.27-.34c.25-.3.49-.45.72-.45.34,0,.51.13.51.38l-.31.68.14,1.13c0,.41-.14.78-.43,1.1-.29.32-.73.79-1.32,1.4l-1.75,1.85-.93.48c-.23.14-.43.3-.62.48l-1.34,1.13c0,.32-.1.56-.31.72h-.55l-.27.14c-.16.43-.63.86-1.41,1.27l-.48.34c-.16.14-.31.21-.45.21l-.96-.14-.65.14c-.18,0-.43-.09-.74-.27s-.62-.33-.94-.43c-.32-.1-.73-.52-1.22-1.27-.49-.74-.76-1.23-.81-1.45,0-.09-.05-.25-.15-.46s-.15-.35-.15-.39.1-.27.31-.68v-.07c0-.07-.06-.23-.19-.48-.13-.25-.19-.56-.19-.92,0-.21-.07-.47-.21-.79.18-.18.27-.32.27-.41s-.03-.22-.1-.39-.1-.3-.1-.39l.21-1.68-.14-.86.07-.82c0-.48-.21-.72-.61-.72-.18,0-.41.12-.68.38l-.24.07c-.61.3-1.05.54-1.3.74-.25.19-.51.29-.79.29-.14.14-.4.26-.78.38l-.27.21c-.09.09-.27.23-.55.41,0,.07-.43.45-1.28,1.15-.85.7-1.62,1.35-2.3,1.97s-1.18.95-1.48,1.01-.46.35-.46.87c0,.09-.21.27-.61.55-.05,0-.28.25-.72.75-.36-.27-.57-.41-.61-.41-.3,0-.51.38-.65,1.13-.14.3-.5.48-1.1.55-.05.02-.13.19-.24.51l-.14.14h-.34s-.21.13-.48.39c-.28.26-.52.43-.72.5-.3.62-.55.92-.75.92-.09,0-.22-.04-.39-.14-.17-.09-.38-.17-.63-.24-.25-.07-.53-.35-.84-.84-.31-.49-.46-.91-.46-1.25,0-2.53.49-3.91,1.47-4.14l.07-.14v-.27c0-.3.13-.51.39-.63.26-.13.53-.38.8-.75.27-.38.46-.59.55-.63h.45c.09,0,.14-.24.14-.72,0-.14.06-.26.17-.38s.18-.28.21-.5.19-.57.5-1.06c.31-.49.46-.78.46-.87l-.07-.14c-.57.53-.98.81-1.23.86-.25.05-.59.38-1.03.99l-.55-.1c-.96.71-1.55,1.11-1.78,1.2-.23.09-.48.35-.76.79,0,.14-.08.23-.24.27s-.46.23-.89.55h-.21c-.57,0-.86-.41-.86-1.23l.72-1.95c.21-.62.69-1.13,1.45-1.56s1.41-.83,1.93-1.21c.52-.39,1.05-.59,1.57-.62l.24-.34c.78-.3,1.3-.76,1.57-1.4.27-.64.65-.96,1.13-.96,1.25,0,2.21.46,2.87,1.39.66.92.99,1.66.99,2.21l.07.92c0,.32-.07.76-.21,1.33-.27.41-.41.72-.41.92,0,.18.11.27.34.27.14,0,.32-.1.55-.29.23-.19.48-.37.77-.53.29-.16.45-.3.5-.41.23-.55.63-.92,1.2-1.13.57-.21.92-.38,1.06-.51l.34-.27.27-.51c.62-.27,1.03-.53,1.23-.75.21-.23.48-.38.82-.45.34-.07.73-.27,1.16-.62l.51-.14.48-.27s.18-.1.41-.17c.23-.07.56-.19,1.01-.36.44-.17.75-.26.91-.26,1.16,0,2.08.47,2.75,1.4s1.01,1.69,1.01,2.26l-.07.62.14.92v.14l-.27,1.88.07.65c0,1.07-.23,1.81-.68,2.22-.11.05-.17.16-.17.34v.31l.68,1.44c.21.5.37.75.48.75l1.1-.31c.32-.09.58-.33.79-.72.18-.09.5-.36.96-.82.14-.36.35-.55.65-.55Z"/>
      <path class="cls-3" d="M1053.23,566.77l.65.48c.32.18.48.58.48,1.2,0,.14-.06.3-.17.48-.12.18-.22.38-.31.58-.8,1.57-1.73,2.36-2.81,2.36-.34,0-.88-.31-1.61-.92s-1.19-1.17-1.39-1.68c-.19-.5-.35-.82-.48-.96-.12-.14-.19-.25-.19-.34,0-.25.1-.52.29-.82.19-.3.34-.67.43-1.11.09-.44.34-.78.74-.99s.69-.43.87-.63c.18-.21.42-.31.72-.31.18,0,.36.08.55.24.18.16.44.32.77.5.33.17.67.54,1.01,1.11l.44.82Z"/>
      <path class="cls-3" d="M1091.58,540.11l.21-.07h.92c.27,0,.67-.32,1.2-.96.05-.04.65-.26,1.83-.65l.14-.14c.32-.27.55-.46.69-.55h.65s.23-.11.55-.32c.32-.22,1-.46,2.04-.74,1.04-.27,1.72-.5,2.04-.68.14-.04.64-.11,1.51-.21l.96-.17.75.07c1.21,0,2.08.8,2.6,2.4,0,.09.06.23.17.43.11.19.17.34.17.43,0,.96-.47,1.96-1.4,3.01l-.48,1.27s-.12.22-.36.51c-.24.3-.45.65-.63,1.04-.18.4-.67,1-1.47,1.8-.14.27-.33.7-.58,1.28-.25.58-.46.96-.63,1.15-.17.18-.62.87-1.33,2.05s-1.08,1.88-1.08,2.09c-.34.25-.58.67-.7,1.27-.13.59-.36,1.15-.7,1.68l-.07.24c.73-.25,1.09-.65,1.09-1.2,0-.07.19-.24.58-.51l.27-.48c.27-.32.51-.5.72-.55.04-.18.28-.45.72-.8.43-.35.72-.6.87-.74.15-.14.39-.28.74-.43.34-.15.73-.71,1.16-1.69.05-.18.22-.33.53-.45.31-.11.56-.3.77-.56s.38-.44.51-.53l.27-.41c.25-.23.42-.36.51-.41l1.67-2.05c.89-.57,1.38-1.02,1.47-1.33l.27-.07h.21c.37-.3.6-.5.72-.62,0-.68.26-1.13.77-1.35s.88-.48,1.11-.79c.23-.31.48-.46.75-.46.07,0,.19.07.38.21h.07c.07,0,.14-.11.21-.34v-.34c0-.39.11-.71.34-.96s.54-.42.92-.5c.39-.08.76-.37,1.13-.87.37-.5.78-.76,1.25-.79s.78-.21.94-.55c.16-.34.65-.71,1.47-1.11.82-.4,1.33-.62,1.54-.65.21-.03.39-.1.56-.19.17-.09.35-.14.53-.14.23,0,.56.07.99.21l.62.14c.52.23,1.01.65,1.47,1.27l.34.34v.14l.07.58v.27c.3.14.45.27.45.41l-.24.44c-.09.16-.14.35-.14.57s-.01.43-.03.65-.05.42-.08.62c-.03.19-.08.38-.14.55s-.12.33-.19.48-.15.29-.24.43l-.27,1.09c-.09.43-.34.95-.74,1.56s-.63,1.03-.7,1.27c-.07.24-.23.57-.48.98l.07.21v.48c.71-.09,1.06-.36,1.06-.82,0-.48.29-.83.86-1.06l.76-.62c.6-1.05,1.33-1.73,2.2-2.05,0-.36.22-.74.65-1.13l1.31-1.23.93-.51c.41-.84.88-1.36,1.41-1.54l.76-.48c.46-.23.71-.45.77-.67.06-.22.23-.44.53-.67.3-.23.73-.6,1.31-1.13l.27-.14.34-.34c.25-.14.54-.25.86-.34l.27-.14c.57-.43,1.08-.72,1.54-.87.46-.15.97-.39,1.54-.74l1.2-.17c.27-.09.46-.14.55-.14,2.17,0,3.25,1.22,3.25,3.66l-.07.55.07,1.99c-.57.94-.86,1.43-.86,1.47l.07.62c0,.09-.15.36-.44.8-.3.45-.47.71-.53.8-.06.09-.27.33-.63.72l-.34,1.03c-.12.23-.31.45-.58.65v.41c0,.34-.45.86-1.33,1.54-.11.59-.31,1.03-.6,1.32-.29.29-.5.58-.65.89-.15.31-.38.6-.7.87,0,.3-.19.8-.58,1.51-.39.71-.69,1.16-.91,1.35-.22.19-.44.53-.67,1.01l-.31.14c-.14.87-.3,1.36-.48,1.47l-.55-.07v.14s.04.12.14.24c.09.11.14.24.14.38,0,.16-.07.3-.21.41-.14.11-.22.23-.24.34-.02.11-.07.23-.15.34s-.13.34-.15.67c-.02.33-.2.78-.52,1.35s-.49.96-.51,1.16-.06.38-.1.51-.07.27-.07.41-.06.49-.17,1.06c.44,1.03.74,1.72.93,2.09.18.37.27.6.27.72,0,.91-.11,1.52-.34,1.83-.23.31-.79.46-1.68.46-.57,0-1.07-.2-1.49-.6-.42-.4-.79-.6-1.12-.6v-.62l-.07-.07h-.55s-.14-.12-.29-.24-.29-.27-.43-.48l-.21-.21c-.18-.23-.34-.6-.48-1.13l-.21-.68.07-.55-.07-.86c0-.23.02-.41.07-.55l.07-.92c0-.09.05-.29.14-.6.09-.31.15-.67.17-1.09.02-.42.12-.75.31-.98.18-.23.29-.42.31-.58.02-.16.09-.29.19-.39s.19-.36.26-.77c.07-.41.31-.74.72-.99.23-.41.42-.8.58-1.16.48-.66.73-.99.75-.99h.48c-.23-.27-.34-.43-.34-.48,0-.62.24-.92.72-.92.09,0,.21.02.34.07l.14-.27-.14-.58c0-.39.3-.78.89-1.16,0-.66.31-1.25.92-1.78l-.07-.55c.14-.14.33-.44.58-.91s.57-.94.96-1.42l1.06-1.61.48-.55s0,.03.02.02.03-.06.07-.14.07-.2.12-.36l.21-.51.24-.27c.59-.16.89-.37.89-.62,0-.05-.09-.19-.27-.45v-.14c0-.18.14-.41.41-.68.27-.27.53-.66.77-1.15.24-.49.36-.79.36-.91,0-.09-.05-.14-.14-.14-.73,0-1.22.26-1.47.79,0,.14-.44.41-1.33.82l-.34.51c-.27.25-.51.38-.72.38s-.47.13-.8.39c-.33.26-1.06.86-2.17,1.78s-1.94,1.68-2.46,2.28l-.79.55c-.32.16-.48.29-.48.38,0,.23-.2.52-.58.89l-.41.51c-.32-.11-.5-.17-.55-.17-.25,0-.47.13-.65.38.18.18.28.3.28.34,0,.37-.34.74-1.03,1.13l-1.48,1.54s-.22.17-.51.38-.52.46-.67.77c-.15.31-.55.84-1.22,1.61s-1.05,1.17-1.17,1.23c-.11.06-.25.21-.41.46-.16.25-.49.6-1,1.06-.5.46-.79.96-.86,1.51-.44.16-.65.3-.65.41l-.21.34-.28.14c-.05.09-.08.25-.1.46-.02.22-.48.61-1.37,1.16-.89.56-1.45.84-1.68.84-.07,0-.17.05-.31.14-.14.09-.23.14-.27.14-.07,0-.37-.14-.91-.41-.54-.27-.93-.91-1.18-1.92l.27-.89-.14-.72c0-.14.11-.32.33-.55.22-.23.33-.51.33-.86.36-.82.64-1.4.82-1.75l.07-.55c.09-.23.25-.48.46-.77.22-.29.35-.6.39-.96.04-.35.19-.58.44-.67.25-.09,1.18-1.47,2.77-4.14v-.48l.99-1.71c.3-.5.66-1.07,1.1-1.71l.31-.79c-.71-.27-1.08-.41-1.13-.41-.14,0-.31.09-.51.27,0,.39-.67.79-2.02,1.2-.27.14-.63.47-1.06.99l-.96.55c-.14.09-.35.27-.65.55l-.48.45c-.57.14-1.06.46-1.47.96l-.92.65c-.27.23-.46.4-.55.51-.09.12-.51.37-1.27.75l-.55.55-.51.27c-.37.39-.64.72-.82.99-.18.27-.42.43-.72.48l-.75.27c-.14.59-.56,1.16-1.26,1.71l-.99,1.23c-.18.16-.34.29-.48.38-.09.23-.25.39-.48.48-.3.37-.49.62-.58.75l-.41.31c-.62.23-.92.41-.92.55l.07.62c0,.25-.27.49-.82.72-.23.11-.36.3-.39.55-.04.25-.12.51-.26.79h-.62c-.07,0-.28.12-.65.34-.05,0-.09.02-.14.07l.14.79c0,.27-.18.59-.55.94-.36.35-.64.67-.84.94-.19.27-.34.41-.43.41h-.21l-.21.14c.02.43-.26.9-.86,1.4l-.41.51c-.14.11-.53.68-1.17,1.71s-1.25,1.86-1.82,2.5c-.57.64-1.1,1.07-1.58,1.28s-.99.44-1.54.67l-1.4-.27c-.14-.25-.34-.46-.6-.62-.26-.16-.39-.33-.39-.51l-.41-1.2c0-.32.13-.71.38-1.18.25-.47.4-.83.46-1.09.06-.26.19-.62.39-1.06.21-.45.31-.69.31-.74,0-.62.1-1,.29-1.15.19-.15.63-.48,1.32-1.01.04,0,.07-.04.07-.14v-.07l-.07-.58c.52-.89.86-1.33.99-1.33.04,0,.14.02.27.07l-.21-.75c0-.09.12-.24.38-.45s.45-.43.58-.68l-.14-.41v-.14c0-.43.29-.88.86-1.33.09-.18.27-.65.55-1.4l.9-1.57c.23-.43.47-.72.72-.87.25-.15.39-.33.41-.53.02-.21.1-.43.24-.68,0,.11.02.12.05.02.03-.1.09-.33.17-.67.08-.34.34-.62.78-.82.53-1.35.94-2.02,1.24-2.02.09,0,.22.05.38.14h.14c.37,0,.55-.14.55-.41,0-.09-.05-.14-.14-.14-.21.23-.39.34-.55.34s-.24-.04-.24-.14c0-.05.03-.09.1-.14l.75-1.54.07-.65c.09-.14.27-.34.55-.62l.58-.79v-.34s.1-.28.31-.7c.21-.42.35-.84.44-1.25l.58-.86c.09-.27.14-.52.14-.75,0-.34-.05-.51-.14-.51l-1.99.38c-1.07.55-1.84.98-2.3,1.3l-.79.17s-.35.15-.91.46c-.56.31-1.06.48-1.48.51-.42.03-.8.2-1.12.5l-.14.07h-.65c-.25.3-.42.52-.51.67-.09.15-.17.22-.24.22-2.3,1.53-3.76,2.45-4.38,2.77-.62.32-1.08.61-1.4.87-.32.26-.59.45-.82.56v.41c0,.39-.28.83-.84,1.32-.56.49-1.04.74-1.46.74-.14,0-.35-.07-.63-.22s-.6-.25-.96-.29c-.35-.04-.53-.48-.53-1.3,0-1.16.96-2.22,2.87-3.18.3-.14.57-.3.82-.48s1.27-.63,3.05-1.33l.99-.48c.23-.23.61-.44,1.15-.63.54-.19.96-.36,1.27-.5.31-.14.55-.23.74-.27l.21-.51ZM1123.7,548.39l.34-.62v-.07s-.05-.07-.14-.07c-.23,0-.41.23-.55.68.05.14.09.21.14.21.09,0,.16-.05.21-.14Z"/>
      <path class="cls-3" d="M1169.06,559.96l.55-.48c.34,0,.54-.15.61-.46s.31-.55.73-.74.81-.55,1.18-1.11c.36-.56.74-.84,1.13-.84.14,0,.3.11.48.34.18.23.27.41.27.55,0,.75-.23,1.53-.68,2.33l-.14.96-.24.45c-.34.18-.56.38-.67.58-.1.21-.37.46-.8.75l-.34.48c-.5.16-.84.42-1.01.79-.17.37-.41.57-.72.62-.31.05-.64.27-1.01.68-.23.11-.5.22-.82.31l-.07.34c-.23.23-.59.41-1.08.55-.49.14-.86.27-1.09.39-.24.12-.41.19-.5.19-.43,0-.83-.09-1.2-.26-.36-.17-.74-.28-1.13-.33-.14-.14-.22-.29-.24-.45-.02-.16-.14-.37-.34-.63-.21-.26-.31-.62-.31-1.08l.14-.65c0-.09-.06-.21-.17-.34-.11-.14-.17-.25-.17-.34s.02-.16.07-.21c.04-.05.07-.11.07-.21,0-.11-.02-.24-.07-.38-.05-.14-.07-.25-.07-.34l.21-1.68c0-.14-.05-.21-.14-.21s-.26.11-.5.34c-.24.23-.52.34-.84.34-.18.14-.33.42-.45.86-.18.23-.41.43-.68.62l-.14.21c-.05.16-.22.29-.51.39-.3.1-.5.23-.62.39l-.34.34-.65-.07s-.17.25-.38.6c-.21.35-.47.64-.79.87l-2.6,2.12c-.27.18-.67.41-1.2.68l-.21.21c-1.83,1.21-3.12,1.81-3.87,1.81-.62,0-1.33-.17-2.16-.51-.82-.34-1.27-.75-1.33-1.23l-.34-1.4c-.21-.32-.31-.76-.31-1.33,0-.27.02-.46.07-.55v-.21l-.07-1.13c0-.27.22-.41.65-.41l-.07-.92c0-.09.2-.45.6-1.08.4-.63.67-.99.8-1.08l.34-.45c-.02-.27.14-.56.48-.87.34-.31.62-.62.82-.94.21-.32.59-.67,1.17-1.06l1.03-1.03c.8-.8,1.67-1.44,2.6-1.92.14-.05.42-.27.84-.68.42-.41.9-.71,1.44-.91.54-.19,1.06-.44,1.58-.74s.92-.45,1.22-.45h.27c.09,0,.7-.29,1.82-.86h.21c.09,0,.31.09.65.27h.07l.55-.27c.09-.05.21-.07.34-.07,1.42,0,2.19.98,2.33,2.94.05.41.16.62.34.62.23,0,.55-.42.98-1.25.42-.83,1.32-1.25,2.69-1.25.98,0,1.47.63,1.47,1.88,0,1.48-.66,2.89-1.98,4.21-.09.18-.16.39-.21.62l-.48,1.4v.07c0,.14-.1.33-.29.56-.19.24-.29.45-.29.63l.07.86-.14.96c0,.43.08.72.24.86.73-.18,1.26-.48,1.59-.91.33-.42.56-.66.7-.7l.34-.14c.21-.34.44-.63.72-.86ZM1157.69,559.96c.09-.5.37-.88.84-1.15.47-.26.75-.53.84-.8.43-.32,1.06-.89,1.87-1.71.81-.82,1.22-1.32,1.22-1.51,0-.07-.05-.1-.14-.1h-.07l-.27.17-.62-.07-.65.07-.48-.24-.44.07-.68-.14c-.37,0-.68.07-.94.22-.26.15-.76.31-1.51.5-.74.18-1.41.5-2,.94-.59.45-1.03.67-1.3.67-.16.34-.7.83-1.61,1.47-.55.18-.9.58-1.06,1.2-.59.48-.89.75-.89.82l-.24.58c-.18.16-.41.29-.68.39-.27.1-.43.34-.48.72-.05.38-.2.72-.46,1.03-.26.31-.39.55-.39.74,0,1.12.22,1.68.65,1.68.18,0,.56-.12,1.15-.36s.92-.4,1.01-.5.27-.18.55-.27l.65-.34c.09-.09.19-.15.31-.17s.23-.1.34-.22c.11-.12.32-.26.62-.41.3-.15.53-.35.68-.6.39-.23,1.02-.58,1.88-1.06l.72-.55c.5-.23.81-.42.92-.58.11-.16.34-.32.68-.48Z"/>
      <path class="cls-3" d="M1174.49,565.5l-.27-1.75c0-.14.07-.35.21-.65.14,0,.25-.05.34-.14l-.21-.62c0-.8.22-1.49.67-2.07.45-.58.69-.98.74-1.18.05-.21.37-.87.98-2,.61-1.13,1.06-1.85,1.35-2.17l.21-.44.27-.07c.53-.84,1.27-1.61,2.23-2.29.32-.5.71-.91,1.16-1.23.46-.32.76-.55.92-.68s.4-.23.72-.27l.14-.07c.66-.66,1.23-.99,1.71-.99.16-.16.48-.34.96-.55h.38c.14,0,.27-.04.41-.14.14-.09.27-.14.41-.14.09,0,.33.09.72.27.37-.36.66-.55.89-.55.48,0,.96.18,1.46.55.49.37.81.81.94,1.33.14.53.25.83.34.92.09.09.18.21.27.34.18,0,.42-.42.72-1.27l.41-.55c.62-.8,1.04-1.73,1.27-2.81.05-.05.11-.23.21-.56.09-.33.33-.9.72-1.69.67-.96,1.14-1.94,1.41-2.94l.41-.62c.28-.18.42-.38.45-.6.02-.22.09-.42.21-.6s.25-.41.39-.67c.15-.26.27-.44.36-.53s.23-.41.41-.94c.18-.54.4-.84.67-.91.26-.07.53-.19.8-.38l.07-.24-.14-.48c0-.27.3-.75.91-1.44s1.04-1.25,1.3-1.69c.26-.44.71-1.13,1.33-2.05.63-.92,1.08-1.49,1.35-1.69l.79-.82c.36-.52.88-.79,1.54-.79.5,0,1.03.27,1.57.8.55.54.82,1.07.82,1.59,0,.18-.13.6-.38,1.27l-.07.41c0,.37-.12.8-.38,1.3s-.4.89-.45,1.16l-1.92,4.69c-.23.09-.37.16-.41.21-.59,1.3-1.06,2.01-1.4,2.12v.68c0,.25-.16.43-.48.55l-.14.07c-.21.87-.47,1.5-.79,1.88-.32.39-.55.78-.7,1.18s-.38.62-.7.67c-.32.05-.48.49-.48,1.33-.09.46-.32.68-.68.68-.34,0-.56.3-.65.89-.09.59-.54.91-1.33.96-.23.14-.37.3-.41.48l.27.86c0,.14-.42.67-1.27,1.61l-.27.89c-.43.16-.79,1.33-1.06,3.52l-.41,2.36.07.92-.14.48.41,1.4-.07.79c0,.37.14.55.41.55.14,0,.45-.21.92-.62l.48-.21c1.43-.73,2.32-1.44,2.66-2.12.09-.09.26-.18.5-.27.24-.09.42-.22.53-.38.11-.16.21-.27.27-.34,1.39-.91,2.29-1.71,2.7-2.4s.83-1.09,1.26-1.23l.27-.27c.27-.23.5-.34.68-.34.39,0,.58.11.58.34l-.27.96c.23.62.34.97.34,1.06,0,.8-.35,1.29-1.06,1.47-.3.3-.53.64-.7,1.03-.17.39-.54.63-1.11.72-.39.55-.74.91-1.06,1.08-.32.17-.48.35-.48.53v.31c-.18.27-.34.46-.48.55l-.65-.14c-.09.27-.3.65-.62,1.13-.11-.09-.22-.14-.31-.14-.32,0-.58.19-.79.58-.21.39-.35.58-.45.58h-.79c-.11.07-.3.22-.55.45-.25.23-.67.34-1.27.34l-1.06.21c-1,0-1.93-.33-2.77-.98s-1.3-1.24-1.35-1.78c-.06-.54-.25-1.18-.56-1.93l-.07-1.4c-.25-1.46-.54-2.19-.86-2.19l-.07.44-.27.14c-.14.71-.37,1.06-.68,1.06-.14.07-.29.18-.45.34l-.21.14c-.09.05-.22.24-.39.58-.17.34-.64.82-1.42,1.44-.32.84-.56,1.27-.72,1.27l-.41-.27h-.07c-.18,0-.33.27-.45.8s-.34.8-.68.8c-.09,0-.18.15-.26.46-.08.31-.28.5-.6.58-.32.08-.61.39-.86.94-.25.55-.42.82-.51.82-.05,0-.11-.02-.21-.07l-.58.14c-.11.16-.28.42-.48.79-.21.07-.39.16-.55.27-.71.68-1.65,1.03-2.81,1.03-.82,0-1.47-.18-1.95-.53-.48-.35-.77-.66-.86-.91s-.26-.56-.51-.94c-.25-.38-.41-.84-.48-1.39ZM1188.16,557.74l.24-.45c.39-.14.64-.48.75-1.03.18-.14.65-.73,1.4-1.78.75-1.05,1.13-1.63,1.13-1.75-.23-.23-.49-.34-.79-.34-.05,0-.18.05-.41.14-.23.09-.46.16-.7.21-.24.05-.5.14-.77.27l-.86-.14c-.25,0-.81.33-1.68.99l-.79-.14c-.14,0-.37.3-.68.89l-1.75,1.4h-.21c-.32,0-.54.29-.65.86-.39.5-.75.85-1.1,1.04-.34.19-.58.47-.72.84v.45c-.64.71-.96,1.24-.96,1.61-.48.46-.79.95-.94,1.47-.15.53-.33.97-.53,1.33.09.32.16.71.21,1.18.04.47.27.7.68.7.66,0,1.39-.4,2.19-1.2.05-.04.24-.17.58-.38.34-.21.82-.61,1.42-1.21s.94-.92,1.01-.94c.23-.23.36-.34.41-.34l.27-.27c0-.09.1-.19.29-.31.19-.11.45-.35.77-.7.32-.35.56-.57.74-.63.17-.07.29-.17.36-.29.07-.12.18-.25.34-.36.16-.11.24-.24.24-.38l.07-.41.41-.34ZM1200.03,543.84l-.34.99c.3-.05.56-.35.79-.92.68-.98,1.15-1.59,1.4-1.81.3,0,.52-.19.67-.56.15-.38.42-.75.8-1.11,0-.16.17-.47.51-.92.34-.46.56-.78.67-.98.1-.19.31-.45.63-.77.32-.32.62-.87.91-1.64.29-.78.53-1.24.74-1.4.21-.16.31-.48.31-.96,0-.66-.05-.99-.14-.99-.21,0-.36.13-.46.39-.1.26-.33.6-.67,1.01l-1.16,1.95c-.46.78-.76,1.39-.91,1.85s-.32.72-.51.8c-.19.08-.43.3-.7.67l-.48.48c-.11.27-.21.61-.27.99l-.31.27v.65c0,.3-.17.56-.51.8-.34.24-.51.39-.51.46l-.44.75Z"/>
      <path class="cls-3" d="M1209.34,554.86l.72-.58c.55-.04.84-.33.89-.86.05-.52.42-.98,1.13-1.37l.41-.58c.34-.34,1.28-.79,2.8-1.33.39-.23.65-.43.79-.62.05-.05.09-.07.14-.07l.55.14c.3,0,.68-.08,1.15-.24.47-.16.92-.24,1.35-.24l1.44-.07c.09,0,.28.07.56.21.29.14.63.21,1.04.21.5,0,.96.23,1.38.68.42.46.63.88.63,1.27,0,.71-.37,1.43-1.09,2.16-.73.73-1.31,1.14-1.74,1.23-.39.39-.68.63-.89.74-.21.1-.42.26-.63.48-.22.22-.39.33-.53.33-.09,0-.16-.03-.21-.09-.04-.06-.11-.08-.2-.08-.37,0-.76.44-1.2,1.33l-.62-.07c-.39.25-.64.53-.75.82-.11.3-.35.44-.72.44-.84.84-1.41,1.27-1.71,1.27-.05,0-.21-.05-.48-.14-.18.23-.27.47-.27.72,0,.27-.18.43-.55.48l-.44.41-.34-.07-.68.72c-.34,0-.69.11-1.06.34-.05.27-.11.62-.21,1.04-.09.42-.14.66-.14.7,0,.66.6.99,1.81.99l1.64-.24c.43,0,.84-.11,1.21-.34.38-.23.78-.34,1.21-.34.14,0,.34-.04.62-.14l.34.14c.16-.34.46-.65.89-.92.43-.27.78-.41,1.03-.41l.34-.21c.09-.27.23-.46.41-.55l.27-.24c.18-.18.35-.27.51-.27h.48l.14-.07c.27-.59.66-.94,1.15-1.04.49-.1.8-.27.92-.5.13-.23.35-.37.67-.41.32-.04.59-.2.8-.46.22-.26.48-.51.8-.74.32-.23.54-.4.67-.51.12-.11.23-.17.33-.17.14,0,.21.1.21.31s.05.31.14.31.14-.05.14-.14-.02-.21-.07-.34v-.24c0-.34.18-.57.55-.68l1.54-.99c.05-.48.18-.76.39-.84.22-.08.38-.17.5-.27.11-.1.24-.15.38-.15.3,0,.45.17.45.51l-.17.89.17.92c0,.14-.11.33-.33.56-.22.24-.38.6-.5,1.1-.11.49-.26.76-.45.8h-.21c-.41.43-.74.69-.98.77s-.43.22-.57.43l-1.16,1.33c-.23.23-.42.43-.58.62-.16.18-.29.27-.38.27l-.27-.27s-.05-.07-.14-.07c-.23,0-.37.14-.43.41-.06.27-.18.51-.36.72-.68.32-1.13.62-1.34.89l-.21.07h-.62c-.3,0-.5.22-.62.67-.11.45-.44.7-.98.77-.54.07-.92.21-1.15.41-.05.05-.15.09-.31.14-.16.05-.48.23-.96.55l-2.88,1.03c-.23.11-.38.17-.45.17l-.96.14c-.14,0-.27-.09-.41-.27s-.23-.27-.27-.27l-.62.21c-.46.14-.89.21-1.3.21-.23,0-.48-.08-.75-.24-.27-.16-.49-.27-.65-.34-.66,0-1.13-.51-1.4-1.54l-.41.07c-.09,0-.4-.81-.92-2.43-.14-.18-.35-.31-.65-.39-.3-.08-.45-.3-.45-.67,0-1.03.22-1.72.67-2.07.44-.35.69-.62.74-.8l.48-1.78c.09-.07.21-.3.34-.68l.79-1.44c.09-.16.3-.56.62-1.2ZM1216.58,552.81l-.41.21c-.09.05-.36.25-.8.6-.45.35-.88.64-1.3.86-.42.22-.86.78-1.3,1.69-.44.91-.67,1.44-.67,1.57s.07.21.21.21l1.16-.51c.43-.21.84-.47,1.21-.79.38-.32.92-.71,1.63-1.16l.27-.27c.04-.09.26-.26.63-.5.38-.24.66-.47.84-.7l.34-.14c.39-.62.78-.99,1.18-1.13s.6-.27.6-.41c0-.27-.22-.41-.65-.41-.18,0-.46.11-.82.34h-.79c-.09,0-.34.14-.75.41l-.58.14Z"/>
      <path class="cls-3" d="M1240.17,577.96l.34-.75.21-.86c0-.09.11-.23.33-.41s.33-.34.33-.48c.55-2.12,1.11-3.57,1.68-4.35l.82-2.05c.09-.46.3-.82.63-1.1.33-.27.5-.51.5-.72,0-.14-.23-.34-.7-.6-.47-.26-.7-.51-.7-.74s.75-.67,2.26-1.33c0-.64.34-1.31,1.03-2.02.16-.14.24-.3.24-.48,0-.55.11-.99.34-1.33l.27-.79c.09-.27.28-.58.56-.91.29-.33.43-.66.43-.98v-.27c-.3-.02-.72.37-1.27,1.16-.57,0-1.04.42-1.4,1.27-.18.48-.61.79-1.27.92-.3.55-.79.92-1.47,1.13-.48-.3-.73-.55-.73-.75l.31-2.12c0-.48,1.17-1.68,3.49-3.59.14,0,.58-.43,1.34-1.3l1.88-2.12c1.03-1.03,1.8-1.78,2.33-2.26.98-1.55,1.47-2.58,1.47-3.08.46-.41.85-1.26,1.18-2.55.33-1.29.64-2.22.92-2.81s.45-1.01.5-1.28c.91-2.76,1.59-4.49,2.02-5.2l.34-1.13.51-.41c.04-.11.09-.47.14-1.06.25-.09.51-.59.79-1.51s.55-1.54.82-1.88c.27-.34.46-.7.55-1.08.09-.38.37-.75.84-1.13.47-.38.94-.56,1.42-.56.16,0,.43.23.8.7.38.47.6,1,.68,1.61s.14,1.02.19,1.23.07.51.07.87l.07.99c0,.18-.09.76-.27,1.75-.18.98-.31,1.68-.39,2.1-.08.42-.31.7-.7.84s-.58.27-.58.41.09.25.27.33c.18.08.27.14.27.19,0,.09-.13.39-.39.91-.26.51-.51.84-.74.98.14.27.21.43.21.48,0,.11-.17.47-.5,1.08-.33.6-.6,1.01-.8,1.21s-.41.67-.62,1.4c-.21.73-.73,1.35-1.57,1.85-.32.32-.6.84-.84,1.57s-.59,1.19-1.04,1.37l-.44.65v.14c0,.34-.12.72-.34,1.13-.23.41-.46.9-.68,1.45-.23.56-.44.93-.65,1.11-.09.53-.25,1-.48,1.42-.23.42-.37.79-.41,1.11l-.24.27c-.46.07-.68.29-.68.65l.14.75s-.21.4-.62,1.13l-.14.68c-.11.57-.33.95-.65,1.15-.32.19-.52.62-.62,1.28l-.14.82s.02.11.07.21c.05,0,.18-.12.41-.38.32.12.5.17.55.17.14,0,.27-.1.39-.29.12-.19.32-.34.6-.43l.14-.07c.11-.32.29-.49.51-.51.23-.02.42-.13.58-.33.16-.19.29-.29.38-.29.05,0,.21.09.48.27h.07l.31-.14-.07-.55c0-.23.1-.38.31-.44.21-.07.35-.18.44-.34l1.27-.82c.55-.23.95-.47,1.21-.74.26-.26.55-.45.85-.56.31-.11.55-.26.72-.43.17-.17.55-.28,1.15-.33.66-.57,1.17-.96,1.54-1.16l.27-.38s.14-.09.27-.14c.14-.04.31-.18.53-.41.22-.23.42-.34.6-.34.46,0,.68.23.68.68,0,.75-.34,1.36-1.03,1.81l-.07.1c-.11.91-.4,1.37-.85,1.37-.09,0-.25.19-.48.58-.25-.04-.4-.07-.44-.07-.18.27-.41.53-.68.75h-.21c-.36,0-1.83,1.06-4.41,3.18-.14.14-.25.23-.34.27l-.65-.07s-.14.27-.41.68c-.34.11-.72.33-1.13.65-.41.32-.71.52-.91.62-.19.09-.37.25-.53.46-.16.22-.38.37-.65.46l-.45.41h-.21c-.18,0-.41.11-.67.34-.26.23-.39.44-.39.65,0,.09.1.27.31.55.18-.14.82.55,1.92,2.07,1.09,1.52,1.64,2.97,1.64,4.36,0,1.03-.16,1.69-.46,2-.31.31-.46.53-.46.67,0,.09.03.35.1.79v.14c0,.23-.13.37-.39.41-.26.04-.42.14-.46.27v.86l-.14.41c-.3.16-.61.7-.92,1.61-.68.71-1.18,1.11-1.47,1.2l-.07.14.07.92c0,.23-.1.41-.31.55s-.49.43-.84.87c-.35.45-.71.76-1.08.94-.09.43-.27.74-.53.92-.26.18-.53.45-.8.79l-.21.14c-.21.04-.4.3-.58.75l-.27.07c-.32.55-.63.94-.94,1.18-.31.24-.53.46-.67.67l-.55.34c-.21.41-.63.88-1.27,1.4-.05,0-.14-.07-.27-.21h-.1c-.09,0-.17.09-.24.27-.07.18-.19.35-.38.51-.18.16-.36.39-.55.68l-.14.14c-.3,0-.76.4-1.4,1.2-.43.09-.81.25-1.13.48-.48.55-.81.82-.99.82-.02,0-.27-.19-.75-.57-.48-.38-.72-.97-.72-1.8,0-.21-.14-.44-.41-.72-.04-.25-.09-.62-.14-1.1v-.31c0-.27.09-.59.27-.96l.21-.72c.05-.18.11-.33.21-.44.09-.11.22-.44.39-.98s.37-1.07.6-1.59l.07-.34c.25-1.09.46-1.63.62-1.61.14-.34.27-.8.41-1.37s.23-1.04.29-1.4.22-.66.5-.89l.86-2.74ZM1247.26,571.39l.14,1.47c0,.09-.19.53-.56,1.32-.38.79-.62,1.42-.74,1.9-.12.48-.37.72-.75.72h-.34c-.05.09-.07.18-.07.27l.07.75c0,.3-.08.82-.24,1.57s-.39,1.23-.68,1.44l-.21.24c-.05.34-.22.88-.53,1.62-.31.74-.56,1.32-.77,1.75-.21.42-.37.95-.48,1.57-.11.63-.26,1.03-.44,1.21-.14.64-.27,1.17-.41,1.59s-.31.99-.51,1.69c.05.09.12.14.21.14.14,0,.31-.25.51-.75.09-.09.25-.15.46-.19.22-.03.41-.28.57-.74l.07-.14c.25-.05.43-.18.55-.39.11-.22.24-.35.38-.39.14-.05.3-.16.48-.34l.24-.07c.09-.05.17-.17.24-.38.07-.21.15-.37.24-.48h.48l.14-.07c.18-.73.41-1.2.67-1.42.26-.22.46-.47.6-.77.14-.3.3-.53.5-.68.19-.16.34-.46.43-.89.41-.48.67-.86.79-1.13.11-.27.27-.5.48-.68l.07-.24-.14-.41v-.14c0-.18.27-.64.81-1.37.54-.73.87-1.34,1.01-1.83.14-.49.26-.88.38-1.18.11-.3.21-.63.27-1.01.07-.38.19-.68.38-.92.18-.24.27-.56.27-.98,0-.71-.32-1.6-.96-2.67-.05-.05-.09-.18-.14-.41-.05-.23-.27-.5-.67-.8-.4-.31-.69-.46-.87-.46l-.27.14s-.19.12-.43.21c-.24.09-.36.31-.36.65v.14l.07.75c0,.21-.3.47-.89.79Z"/>
      <path class="cls-3" d="M1278.01,565.23l-1.61,1.4c-.09-.09-.18-.14-.27-.14-.23,0-.51.21-.84.62-.33.41-.57.62-.7.62l-.34-.07c-.57.43-.98.68-1.23.75-.25.07-.55.19-.91.38-.35.18-.67.29-.96.31-.29.02-.52.12-.7.29-.18.17-.63.26-1.33.26l-.55-.07c-.3.14-.49.21-.58.21-.18,0-.38-.1-.58-.29-.21-.19-.43-.3-.67-.33s-.49-.18-.74-.48c-.25-.3-.49-.5-.7-.62-.22-.11-.39-.27-.53-.48l-.48-.41c-.39-.27-.76-.78-1.13-1.51-.37-.73-.55-1.3-.55-1.71v-.14l.07-.65-.07-.75c.09-.09.21-.29.34-.58v-1.09l.82-2.74c.04-.11-.05-.26-.27-.44-.23.34-.46.55-.69.62-.23.07-.38.23-.46.48s-.21.38-.4.38l-.41-.14s-.15.28-.31.7c-.16.42-.44.63-.83.63-.41,0-.62-.16-.62-.48l.07-.62-.21-.86c0-.18.18-.54.55-1.08.37-.54.7-.84,1.01-.92.31-.08.57-.3.79-.65.22-.35.69-.78,1.42-1.28.41-.09.77-.39,1.06-.89.32-.25.74-.46,1.25-.62.51-.16.9-.39,1.17-.7s1.04-.79,2.33-1.44c1.29-.65,2.23-.98,2.83-.98.18,0,.43-.05.75-.15.32-.1.62-.19.89-.27.27-.08.56-.21.86-.38.3-.17.54-.26.72-.26l.99.34c.73.21,1.18.35,1.34.45.05.05.28.14.7.29.42.15.86.35,1.3.6.45.25.67.72.67,1.4-.39.57-.58.88-.58.92,0,.09.26.23.79.41.18.34.46.79.82,1.33l.38,1.2.07,2.81-.07.27c-.25.23-.38.38-.38.45l.1.68-.27.96c-.07.3-.18.49-.34.58-.16.09-.26.21-.31.34l-.21.27c-.05.07-.14.27-.29.6s-.31.59-.5.77c-.18.18-.3.4-.34.65s-.16.43-.34.55c-.18.11-.31.23-.39.36s-.21.23-.39.33ZM1267.38,566.12l.14.79.07.07h.55l.17.07c.46.09.8.14,1.02.14.71,0,1.27-.18,1.69-.53.42-.35.76-.53,1.01-.53s.46-.17.63-.51c.17-.34.28-.51.32-.51h.48l.14-.07c0-.52.23-.9.7-1.13.47-.23.8-.53.99-.91.19-.38.42-.66.67-.86.25-.19.42-.45.51-.77l.27-.41c.09-.09.14-.26.14-.51l.65-1.23c.14-.57.21-1.02.21-1.33,0-.48-.25-.86-.73-1.13-.49-.27-.73-.81-.73-1.61,0-.52.27-1.01.8-1.45s.8-.71.8-.8c0-.14-.07-.21-.21-.21-.07,0-.33.09-.79.27-.16.32-.97.74-2.42,1.27-.48-.23-.74-.34-.79-.34-.14,0-.27.14-.41.41-.14.27-.27.47-.41.58h-.44s-.19.15-.44.45-.57.44-.96.44l-.41.41c.02.37-.21.74-.68,1.13l-.38.45c-.23.27-.52.59-.89.96l-.61,1.54c-.25.59-.38,1.04-.38,1.33-.07.14-.22.28-.46.43-.24.15-.36.34-.36.56,0,.05.08.16.24.34.16.18.24.32.24.41l-.14.45-.14,1.27.34,1.1Z"/>
      <path class="cls-3" d="M1291.97,552.19l.51-.14.21-.44c1.12-.66,1.92-1.29,2.4-1.88.04-.09.15-.18.31-.27.16-.09.33-.25.51-.48.84-.84,1.85-1.27,3.01-1.27,1.37,0,2.1.83,2.19,2.5l.21.51c.18.32.44.97.77,1.95.33.98.5,1.59.5,1.81,0,.62-.19,1.23-.58,1.85-.32.16-1.08,1.02-2.29,2.57l-.34.24c-.18.41-.42.82-.72,1.23-.46.16-.68.33-.68.51v.62s-.05.14-.15.27-.25.4-.43.79l-.27.41c-.09.09-.18.28-.27.56-.09.29-.22.54-.39.77-.17.23-.26.41-.26.55,0,.34.45.51,1.33.51.05,0,.22-.07.51-.21l.48.14s.16-.07.34-.22c.18-.15.46-.27.84-.36.38-.09.71-.23.99-.41.29-.18.63-.34,1.03-.48.4-.14.78-.36,1.15-.67.37-.31.72-.53,1.08-.67s.68-.35.99-.63c.31-.29.66-.55,1.04-.8.39-.25,1-.8,1.85-1.64.55-.43.92-.67,1.13-.72.04,0,.25-.3.6-.91.35-.6.76-.91,1.21-.91.48,0,.72.23.72.68,0,.25-.11.49-.34.72v.21l.07.55c.04.07.07.17.07.31,0,.09-.09.23-.26.41-.17.18-.29.42-.36.7s-.29.47-.65.56c-.14.5-.31.79-.53.86-.22.07-.52.3-.91.68s-.94.84-1.64,1.37c-.71.53-1.19.93-1.45,1.21-.26.29-.44.43-.53.43-.05,0-.14-.04-.27-.14-.14-.09-.23-.14-.27-.14-.14,0-.23.16-.27.48l-.14.34c-.3.18-.47.27-.51.27l-.21-.07h-.14c-.27,0-.41.1-.41.31l.21.34v.07c0,.32-.18.48-.55.48-.25,0-.98.42-2.19,1.27l-.99.21-.82.44c-.27-.16-.45-.24-.51-.24l-.55.17-.99.07s-.44-.23-1.25-.68c-.81-.46-1.29-.91-1.45-1.37-.16-.46-.37-.92-.62-1.39-.25-.47-.38-.79-.38-.98,0-1.09.09-1.88.27-2.34s.3-.82.34-1.04c.04-.23.18-.47.39-.74.22-.26.39-.69.53-1.28.66-1.32,1.12-2.13,1.37-2.43.25-.3.44-.66.58-1.09l.45-.62s.11-.22.21-.53c.09-.31.21-.48.34-.53.18-.32.27-.52.27-.62,0-.66-.3-.99-.89-.99-.11,0-.24.12-.38.36-.14.24-.45.47-.94.7-.49.23-.79.4-.91.51-.11.12-.36.26-.74.43-.38.17-.7.44-.98.8l-.58.27c-.18.43-.34.67-.48.72-.14.05-.56.16-1.27.34-.05.02-.16.16-.34.41-.18.25-.44.38-.79.38-.27.27-.55.59-.82.96-.09,0-.33.09-.72.27l-.69.17c-.18.14-.38.35-.6.65-.22.3-.62.44-1.22.44-.34,0-.51-.27-.51-.82,0-1.12.39-2.01,1.18-2.67.79-.66,1.36-1.02,1.73-1.06.37-.04.59-.18.68-.41.09-.23.31-.42.67-.57.35-.15.76-.48,1.23-.99s.98-.86,1.52-1.04l.41-.48Z"/>
      <path class="cls-3" d="M1343.41,536.55l.1.48c0,.09-.23.31-.7.67-.47.35-.76.53-.87.53-1.61,0-2.42-.47-2.42-1.4l.21-.75-.07-.86c0-.36.4-.95,1.2-1.75.23-.09.55-.33.96-.72.41-.39,1.07-.73,1.98-1.03.09-.05.23-.24.41-.58.57-.32,1-.54,1.3-.65.3-.11.81-.37,1.54-.77.73-.4,1.46-.75,2.21-1.06s1.4-.62,1.97-.94l.68-.21.51-.41c.18-.11.4-.19.65-.24.25-.04.5-.14.75-.27l.21-.07h.41s.15-.06.31-.19c.16-.12.8-.25,1.93-.38,1.13-.12,1.72-.19,1.76-.19.59,0,1.13.36,1.63,1.08.49.72.74,1.55.74,2.48,0,.66-.25,1.35-.74,2.07-.49.72-.86,1.39-1.11,2-.25.62-.49,1.02-.7,1.2-.22.18-.46.55-.74,1.1l-1.13,1.78c-.18.37-.35.87-.51,1.52-.16.65-.48,1.06-.96,1.21-.21.71-.45,1.24-.74,1.61s-.46.69-.53.98-.17.54-.29.77c-.13.23-.3.7-.53,1.4-.66.73-1.04,1.38-1.15,1.95s-.43.97-.98,1.2c-.21.68-.38,1.15-.53,1.39-.15.24-.29.54-.41.89-.13.35-.25.58-.36.67l-.99,2.81-.21.92c-.3.41-.49.8-.57,1.16-.08.37-.2.72-.36,1.06v.55c0,.16-.07.38-.21.65l-.21.62c0,.53-.17.88-.51,1.06v.07c0,.07.08.35.24.86v.14l-.38,1.03v.17l.24.68-.1.99c0,.37.15.84.45,1.42.3.58.5.87.62.87.04,0,.14-.09.27-.27.48-.14.85-.33,1.11-.57.26-.24.58-.4.94-.5.05-.04.11-.16.19-.34.08-.18.25-.34.5-.48,0-.05.05-.07.14-.07l.38.07h.07s.11-.1.21-.29c.09-.19.24-.37.44-.53.21-.16.57-.58,1.09-1.27.52-.68,1.06-1.16,1.61-1.44l2.09-2.57.86-.72c.14-.55.3-.9.48-1.04.18-.15.38-.38.58-.7l.34-.34.14-.27c.43-.73.8-1.27,1.09-1.61.3-.34.47-.6.51-.79.05-.18.27-.56.67-1.15.4-.58.83-1.27,1.3-2.07.47-.8.8-1.34,1.01-1.63s.35-.59.43-.92.33-.66.74-.98l1.74-3.29.99-1.68.21-.21c.14-.14.25-.4.34-.79l.45-.96c.14-.39.24-.67.31-.86s.24-.45.51-.79l.07-.27c.04-.23.14-.48.27-.75l.51-.21c.09-.21.15-.49.19-.86s.19-.68.46-.94c.27-.26.53-.39.75-.39.05-.04.22-.37.51-.98.3-.6.84-.91,1.64-.91.96,0,1.83.56,2.62,1.68s1.18,2.01,1.18,2.67-.4,1.11-1.2,1.27c-.64.8-1.12,1.59-1.46,2.38s-.62,1.4-.87,1.83c-.46,1.39-.68,2.16-.68,2.29-.23.27-.43.68-.6,1.21-.17.54-.31.87-.43.99-.11.13-.33.63-.63,1.52-.31.89-.55,1.43-.74,1.61v.82c0,.89-.42,1.94-1.27,3.15l-.21.79-.34.27v.86c-.32.14-.5.41-.55.82l-.17.86s-.07.05-.07.14.08.14.24.14c.46,0,.82-.35,1.1-1.06.05-.02.31-.16.79-.41s.75-.41.82-.48l.51-.44c.27-.14.51-.37.72-.68.21-.32.46-.5.77-.55.31-.04.53-.19.67-.43s.58-.54,1.34-.91l1.82-1.47c.37-.3.88-.44,1.54-.44.39,0,.58.24.58.72,0,.18-.14.42-.43.7-.29.29-.44.51-.46.67-.02.16-.08.29-.17.38-.09.09-.17.36-.24.8-.07.44-.28.71-.63.8-.35.09-.63.25-.84.46-.21.22-.41.35-.6.39-.2.05-.39.14-.6.27-.21.14-.43.26-.67.36-.24.1-.57.43-.98.98,0,.05-.29.21-.86.48l-.55.51c-.37.23-.72.43-1.06.62h-.21l-.21.07c-.27.41-.88,1.02-1.82,1.81l-1.75,1.47c-.32.27-.5.53-.53.77-.03.24-.19.54-.46.91-.27.37-.41.63-.41.79,0,1.64-.31,2.58-.93,2.81-.09.05-.14.25-.14.62,0,1.12-.18,1.85-.55,2.19-.11.27-.35.74-.72,1.4l-.07.07.07.75c0,.3-.11.63-.34.99-.23.36-.34.67-.34.92l-.38,1.4c-.09.32-.22.56-.39.74s-.53,1.07-1.08,2.69c-.43.66-.67,1.06-.72,1.2s-.25.21-.62.21l-.41.07c.02.09.08.24.19.45.1.21.15.36.15.48,0,.52-.11.97-.34,1.33-.23.37-.37.68-.41.96l-.21.48c-.05.07-.09.21-.14.41-.05.21-.19.47-.45.79l-.21.44c-.09.27-.32.55-.68.82-.16.62-.52,1.42-1.08,2.41-.56.99-1.07,1.66-1.52,2l-.34.34s-.11.07-.21.07h-.24l-.41-.14c-.14,0-.24.21-.31.63-.07.42-.27.63-.62.63-.18,0-.32-.05-.41-.14-.59.62-1.03.95-1.32.99-.29.04-.5.09-.63.14-.14.04-.23.07-.27.07-.21,0-.48-.3-.82-.91-.34-.6-.6-.93-.79-.98l-.44-.31s-.27-.4-.67-1.2-.6-1.52-.6-2.16l-.21-1.4.14-.55c-.14-.39-.21-.6-.21-.65,0-.55.14-1.01.43-1.39.28-.38.43-.59.43-.63,0-.07-.12-.3-.34-.68v-.17c0-.18.23-.83.68-1.95l.21-.68.14-.07h.27s.11-.14.19-.43c.08-.29.21-.49.39-.6.18-.11.27-.22.27-.31v-.14l-.14-.45c0-.09.11-.25.34-.48.23-.23.43-.54.6-.94.17-.4.34-.65.5-.74.16-.09.26-.35.31-.79.41-.8.92-1.2,1.54-1.2l.21-.21-.14-.41c0-.32.54-.92,1.61-1.81l.31-.51c.14-.27.3-.41.48-.41l.99.21.14-.07-.24-1.03c.07-.07.15-.12.24-.17.07-.11.15-.36.26-.74.1-.38.22-.56.36-.56.04,0,.31.14.79.41l.27-.27c0-.09-.05-.21-.14-.36-.09-.15-.14-.27-.14-.36,0-.55.49-.92,1.47-1.13.18-.23.32-.51.41-.84.09-.33.3-.55.62-.65.32-.1.72-.41,1.2-.91.48-.5.72-.84.72-1.03,0-.46.21-1.04.62-1.75.41-.21.62-.34.62-.41s-.09-.22-.27-.45c-.05,0-.07-.05-.07-.14,0-.41.19-.66.58-.75l.07-.07-.14-.99c.43-.62.73-1.44.89-2.46v-.41c0-.14.09-.3.27-.48s.38-.56.58-1.13l-.07-.72c0-.09.16-.41.48-.96l.07-.38c-.34.18-.62.47-.82.86l-.38.34c-.27.34-.46.61-.55.79s-.22.34-.39.48-.3.3-.39.5c-.09.19-.21.35-.34.46-.14.12-.23.29-.27.51l-.21.34c-.36.12-.58.29-.65.51l-.75,1.47c-.62.18-.92.63-.92,1.33v.27s-.21.06-.48.12-.41.2-.41.43c0,.14-.1.35-.31.65-.27-.05-.74.47-1.4,1.54l-.34.48c-.21.23-.5.41-.89.55-.25.39-.48.62-.68.7s-.31.2-.31.36l.07.65c0,.18-.29.3-.85.34-.23.18-.36.53-.41,1.04-.05.51-.3.77-.75.77-.16,0-.4.16-.72.48-.23.05-.44.19-.63.43s-.34.37-.43.39c-.09.02-.21.08-.34.17l-.48-.14c-.23.41-.4.62-.51.62l-.89-.07-.51.14c-.5,0-1.19-.33-2.07-.99s-1.49-1.27-1.83-1.81c-.34-.55-.64-.93-.89-1.15-.25-.22-.39-.45-.41-.7-.02-.25-.16-.54-.41-.86s-.41-.86-.48-1.61l-.14-.51v-.27l.14-.86-.07-.62.58-2.33-.07-.75c0-.09.11-.33.34-.72l.14-.68c0-.23.09-.54.27-.92l.14-.75c0-.3.12-.57.36-.82.24-.25.45-.38.63-.38.14,0,.25-.07.34-.21-.27-.18-.41-.35-.41-.51,0-.27.07-.51.21-.72s.23-.55.27-1.03l1.88-3.7c.14-.32.25-.65.34-.99.09-.34.24-.64.45-.91s.36-.48.48-.65c.11-.17.21-.34.27-.5s.15-.37.24-.63c.09-.26.34-.58.75-.94l.21-.51c.14-.32.47-.74.99-1.27l.21-.68c.05-.23.25-.53.6-.91.35-.38.55-.64.6-.8.32-1.09.63-1.82.94-2.17.31-.35.58-.77.8-1.25l.41-.41h.65s.07-.04.07-.14c0-.05-.05-.15-.14-.31-.09-.16-.14-.29-.14-.38,0-.62.21-.92.62-.92.09,0,.17.03.24.1s.16.1.27.1c.04,0,.09-.02.14-.07v-.27l-.14-.45v-.07c0-.14.07-.46.21-.98s.21-.82.21-.91c0-.11-.06-.31-.19-.58-.12-.27-.28-.41-.46-.41-.05,0-.23.06-.55.17h-.07l-.41-.31h-.07c-.09,0-.14.1-.14.31-.21.27-.4.41-.58.41l-.48-.21s-.28.11-.7.34c-.42.23-.68.34-.77.34h-.07l-.58-.14c-.18,0-.31.15-.38.46-.07.31-.48.49-1.23.53-.18.27-.41.47-.67.6-.26.13-1.23.77-2.89,1.93l-.27.14c-.16.5-.47.95-.92,1.35-.46.4-.68.86-.68,1.39l-.1.82ZM1356.85,575.81l.2-.14c-.05-.09-.07-.18-.07-.27,0-.21.11-.49.34-.86-.04-.09-.07-.23-.07-.41,0-.09.14-.35.41-.79l.07-.62c.04-.39.15-.64.32-.75.17-.12.27-.29.29-.51s.11-.54.27-.94c.16-.4.24-.69.24-.87l.48-1.85c-1.3,1.51-2.1,2.4-2.4,2.69-.31.29-.56.63-.77,1.04-.21.41-.55.96-1.02,1.64s-.88,1.27-1.21,1.75c-.33.48-.57.92-.72,1.32-.15.4-.46,1.05-.92,1.97-.47.91-.78,1.58-.92,2.02s-.26.98-.34,1.63c-.08.65-.38,1.11-.91,1.39-.05,0-.07.05-.07.14,0,.04.07.11.21.21l.14.21v.72c0,.14-.09.27-.27.41v.41c0,.25-.11.82-.34,1.71.23.37.34.83.34,1.4l-.14.34s.04.11.14.21l.21.41c0,.09.02.14.07.14.09,0,.18-.14.27-.41l.44-.48c.14-.18.36-.58.67-1.2.31-.62.58-1,.8-1.16.23-.16.34-.29.34-.38s-.02-.31-.07-.65v-.07c0-.27.1-.47.31-.58.2-.11.31-.22.31-.31l.24-.51c.23-.55.34-1.02.34-1.4.09-.14.26-.32.51-.55.25-.23.38-.46.38-.68l-.07-.65c0-.5.51-1.57,1.54-3.22l.51.07s.07-.05.07-.14l-.27-.21c-.21,0-.31-.15-.31-.44,0-.32.15-.57.44-.75Z"/>
      <path class="cls-3" d="M1392.66,565.23l-1.61,1.4c-.09-.09-.18-.14-.27-.14-.23,0-.51.21-.84.62-.33.41-.57.62-.7.62l-.34-.07c-.57.43-.98.68-1.23.75-.25.07-.55.19-.91.38-.35.18-.67.29-.96.31-.29.02-.52.12-.7.29-.18.17-.63.26-1.33.26l-.55-.07c-.3.14-.49.21-.58.21-.18,0-.38-.1-.58-.29-.21-.19-.43-.3-.67-.33s-.49-.18-.74-.48c-.25-.3-.49-.5-.7-.62-.22-.11-.39-.27-.53-.48l-.48-.41c-.39-.27-.76-.78-1.13-1.51-.37-.73-.55-1.3-.55-1.71v-.14l.07-.65-.07-.75c.09-.09.21-.29.34-.58v-1.09l.82-2.74c.04-.11-.05-.26-.27-.44-.23.34-.46.55-.69.62-.23.07-.38.23-.46.48s-.21.38-.4.38l-.41-.14s-.15.28-.31.7c-.16.42-.44.63-.83.63-.41,0-.62-.16-.62-.48l.07-.62-.21-.86c0-.18.18-.54.55-1.08.37-.54.7-.84,1.01-.92.31-.08.57-.3.79-.65.22-.35.69-.78,1.42-1.28.41-.09.77-.39,1.06-.89.32-.25.74-.46,1.25-.62.51-.16.9-.39,1.17-.7s1.04-.79,2.33-1.44c1.29-.65,2.23-.98,2.83-.98.18,0,.43-.05.75-.15.32-.1.62-.19.89-.27.27-.08.56-.21.86-.38.3-.17.54-.26.72-.26l.99.34c.73.21,1.18.35,1.34.45.05.05.28.14.7.29.42.15.86.35,1.3.6.45.25.67.72.67,1.4-.39.57-.58.88-.58.92,0,.09.26.23.79.41.18.34.46.79.82,1.33l.38,1.2.07,2.81-.07.27c-.25.23-.38.38-.38.45l.1.68-.27.96c-.07.3-.18.49-.34.58-.16.09-.26.21-.31.34l-.21.27c-.05.07-.14.27-.29.6s-.31.59-.5.77c-.18.18-.3.4-.34.65s-.16.43-.34.55c-.18.11-.31.23-.39.36s-.21.23-.39.33ZM1382.03,566.12l.14.79.07.07h.55l.17.07c.46.09.8.14,1.02.14.71,0,1.27-.18,1.69-.53.42-.35.76-.53,1.01-.53s.46-.17.63-.51c.17-.34.28-.51.32-.51h.48l.14-.07c0-.52.23-.9.7-1.13.47-.23.8-.53.99-.91.19-.38.42-.66.67-.86.25-.19.42-.45.51-.77l.27-.41c.09-.09.14-.26.14-.51l.65-1.23c.14-.57.21-1.02.21-1.33,0-.48-.25-.86-.73-1.13-.49-.27-.73-.81-.73-1.61,0-.52.27-1.01.8-1.45s.8-.71.8-.8c0-.14-.07-.21-.21-.21-.07,0-.33.09-.79.27-.16.32-.97.74-2.42,1.27-.48-.23-.74-.34-.79-.34-.14,0-.27.14-.41.41-.14.27-.27.47-.41.58h-.44s-.19.15-.44.45-.57.44-.96.44l-.41.41c.02.37-.21.74-.68,1.13l-.38.45c-.23.27-.52.59-.89.96l-.61,1.54c-.25.59-.38,1.04-.38,1.33-.07.14-.22.28-.46.43-.24.15-.36.34-.36.56,0,.05.08.16.24.34.16.18.24.32.24.41l-.14.45-.14,1.27.34,1.1Z"/>
      <path class="cls-3" d="M1402.87,554.93l.48.21c.05-.39.26-.72.65-.99h.28c.23,0,.53-.31.89-.92l.58-.34c.09.05.23.07.41.07.14,0,.27-.09.39-.27s.44-.54.95-1.06h.14c.14,0,.3-.1.5-.31.19-.21.45-.31.77-.31l1.17-.31c.37-.09.57-.14.62-.14.21-.07.71.35,1.51,1.25.8.9,1.2,1.77,1.2,2.62,0,.48-.25.76-.75.86l-.17.14v.68l-.58,1.27c-.16.34-.35.56-.58.65-.21.37-.35.62-.45.75l-.48.07-.21.21v.86c-.21.27-.5.87-.89,1.8-.39.92-.58,1.51-.58,1.76,0,.43.09.65.27.65.14,0,.27-.06.41-.17.14-.11.33-.25.57-.39.24-.15.42-.3.53-.46.11-.16.35-.3.72-.43.36-.12.71-.36,1.03-.7.32-.34.55-.57.68-.68.14-.11.29-.27.44-.46.16-.19.26-.29.31-.29.14,0,.35-.04.65-.14.04-.25.09-.43.14-.55l.82-.41,1.98-1.78.27-.34c.36-.09.59-.16.68-.21.18-.62.49-1.06.92-1.33,0-.09.11-.16.34-.21.18-.37.42-.66.7-.87.29-.22.52-.48.7-.8l.79-.65c.23-.09.39-.23.48-.41,1.19-1.05,1.92-1.65,2.21-1.8.29-.15.75-.22,1.39-.22s1.16.25,1.56.74c.4.49.83.86,1.3,1.11.47.25.7.73.7,1.44,0,.66-.51,1.93-1.54,3.8-.66,1.96-1,3.17-1.03,3.61-.02.45-.13.7-.31.77s-.27.15-.27.24v.14c0,.55.09.82.27.82.14,0,.33-.11.57-.34.24-.23.72-.48,1.45-.75l.31.07c.66-1,1.1-1.55,1.33-1.63.23-.08.45-.28.68-.62s.51-.51.84-.53c.33-.02.54-.08.63-.17.02-.55.47-1.16,1.35-1.85s1.38-1.03,1.52-1.03c.23,0,.41.17.55.51s.28.58.43.7c.15.13.22.23.22.33v.62c0,.3-.15.49-.44.58-.23.5-.43.8-.62.89l-.61-.07c-.11.14-.21.26-.29.38-.08.11-.13.16-.15.14-.18.05-.51.35-.97.91-.47.56-.88,1.02-1.25,1.39l-.14.21c-.18.14-.35.23-.51.27l-.62.51c-.23-.14-.36-.21-.41-.21s-.14.09-.29.27c-.15.18-.44.42-.89.7-.44.29-.78.61-1.01.97l-.55.55-.72.1c-.07,0-.18.1-.34.31l-.61.79c-.3.39-.76.58-1.4.58-.14,0-.31-.12-.53-.36-.22-.24-.42-.44-.61-.62-.19-.17-.63-.68-1.3-1.54-.67-.86-1.01-1.31-1.01-1.35l.21-1.2-.07-.82c0-.16.11-.41.33-.74.22-.33.33-.51.33-.53l-.07-1.33s.09-.11.14-.21l.48-.79c-.05-.23-.07-.48-.07-.75l.14-1.13c-.41.18-.77.55-1.08,1.11-.31.56-.71.84-1.22.84-.43.78-.76,1.15-.99,1.13-.09.09-.16.18-.21.27l-.48.27-.58-.07-.21.86c-.5.27-.83.52-.98.74s-.38.44-.7.67l-.58.55h-.55c-.09.62-.45,1.13-1.06,1.54l-.27.34-.62-.07c-.23.73-.51,1.18-.86,1.33-.39,0-.92.35-1.59,1.06-.67.71-1.15,1.06-1.42,1.06-1.99,0-3.59-1.24-4.83-3.73-.05-.09-.15-.26-.33-.51-.17-.25-.26-.64-.26-1.16,0-.89.12-1.49.36-1.81.24-.32.55-.92.92-1.8.38-.88.66-1.26.84-1.15.05-.09.07-.23.07-.41.37-.43.55-.76.55-.99,0-.09-.05-.14-.14-.14-.05,0-.18.07-.41.21l-.48.21c-.21.05-.36.14-.45.27-.09.14-.25.27-.48.39-.23.13-.41.23-.55.33h-.1c-.14-.14-.23-.21-.28-.21-.14.37-.25.59-.34.68l-.41.07c-.5.53-.83.79-.96.79-.09,0-.3-.08-.62-.24-.32-.16-.48-.32-.48-.48l.24-1.33v-.62s.09-.14.28-.27c.05,0,.23-.25.55-.74.32-.49.7-.74,1.13-.74Z"/>
      <path class="cls-3" d="M1443.93,566.77l.65.48c.32.18.48.58.48,1.2,0,.14-.06.3-.17.48-.12.18-.22.38-.31.58-.8,1.57-1.73,2.36-2.81,2.36-.34,0-.88-.31-1.61-.92s-1.19-1.17-1.39-1.68c-.19-.5-.35-.82-.48-.96-.12-.14-.19-.25-.19-.34,0-.25.1-.52.29-.82.19-.3.34-.67.43-1.11.09-.44.34-.78.74-.99s.69-.43.87-.63c.18-.21.42-.31.72-.31.18,0,.36.08.55.24.18.16.44.32.77.5.33.17.67.54,1.01,1.11l.44.82Z"/>
    </g>
    <line class="cls-2" x1="21.31" y1="556.67" x2="520.85" y2="556.67"/>
    <line class="cls-2" x1="1469.03" y1="556.67" x2="1968.57" y2="556.67"/>
  </g>
</svg>